<?xml version="1.0" encoding="UTF-8" standalone="no"?>
<svg
   version="1.1"
   width="222"
   height="280"
   id="svg8"
   xmlns="http://www.w3.org/2000/svg"
   xmlns:svg="http://www.w3.org/2000/svg">
  <defs
     id="defs8" />
  <path
     d="M 0,0 H 222 V 280 H 0 Z"
     fill="#020202"
     id="path1" />
  <path
     d="m 48,28 h 145 l 0.0625,71.9375 0.0276,22.75366 c 0.005,9.13611 0.005,9.13611 0.005,13.40676 9.4e-4,2.99663 0.005,5.99324 0.0101,8.98986 0.007,3.81521 0.009,7.6304 0.007,11.44562 3e-4,1.40466 0.002,2.80932 0.006,4.21398 0.005,1.88851 0.003,3.77705 0.001,5.66557 l 0.003,3.2151 C 193,172 193,172 192,173 c -1.86028,0.0965 -3.72427,0.12187 -5.58705,0.12025 l -3.66812,0.004 c -1.35903,-0.004 -2.71807,-0.007 -4.07711,-0.0109 -1.44189,-3.1e-4 -2.88378,-1.8e-4 -4.32568,3.6e-4 -3.87435,2.3e-4 -7.74867,-0.006 -11.62301,-0.0126 -3.63059,-0.006 -7.26117,-0.006 -10.89176,-0.007 -10.62993,-0.005 -21.25985,-0.0192 -31.88977,-0.0321 L 48,173 Z"
     fill="#f0f0f2"
     id="path2" />
  <path
     d="M 0,0 H 222 V 280 H 0 Z m 21.6875,14.6875 -2.425781,1.886719 c -5.086395,5.455356 -6.861685,11.188379 -6.776383,18.609588 l -0.02105,2.375218 c -0.01818,2.605459 -0.008,5.209997 0.0023,7.815487 -0.0071,1.876563 -0.01581,3.753121 -0.02611,5.629669 -0.02246,5.082774 -0.01956,10.165236 -0.01068,15.248041 0.0051,4.249391 -0.0022,8.498724 -0.0095,12.74811 -0.01699,10.028424 -0.01344,20.056696 0.0033,30.085118 0.01692,10.33158 0.0011,20.66275 -0.03122,30.99429 -0.02673,8.8835 -0.03396,17.76687 -0.02548,26.65041 0.0049,5.29991 0.0028,10.59957 -0.01779,15.89945 -0.01841,4.98575 -0.01234,9.97088 0.0122,14.95659 0.005,1.82445 0.0016,3.64894 -0.01115,5.47334 -0.07203,11.23375 0.765582,19.5157 7.755329,28.71 l 2.082031,2.04297 2.042969,2.08203 c 8.085559,6.14685 14.830647,7.83078 24.894531,7.41797 L 60,243 v 31 c 4.639577,-1.15989 5.89543,-2.54477 9.203125,-5.91016 l 1.462585,-1.47544 c 1.535298,-1.55205 3.059819,-3.11422 4.58429,-4.6769 1.040972,-1.05602 2.082631,-2.11137 3.125,-3.16602 2.549676,-2.58269 5.089792,-5.17457 7.625,-7.77148 4.078856,1.88529 7.022234,4.61812 10.25,7.6875 1.160929,1.0852 2.322386,2.16984 3.484375,3.25391 l 1.697265,1.59033 c 2.00873,1.88052 4.0258,3.7495 6.06836,5.59326 l 1.71875,1.57031 C 111.3824,272.39368 111.3824,272.39368 116,274 v -31 l 7.04907,0.0476 c 7.69931,0.0498 15.39863,0.0829 23.09806,0.10783 4.66662,0.0156 9.33307,0.0368 13.9996,0.0709 4.50633,0.0327 9.0125,0.0506 13.51893,0.0583 1.71634,0.006 3.43268,0.0163 5.14895,0.0326 2.41037,0.0219 4.8201,0.0248 7.23056,0.0234 l 2.13391,0.0327 c 7.07598,-0.0438 12.35663,-1.30476 17.47396,-6.24563 1.82611,-2.85842 2.78026,-3.55234 4.20415,-6.69392 l 2.29629,-4.94657 c -1.08105,2.76517 1.51725,-4.20165 1.26064,-10.00766 l -0.24694,-5.69814 c 0.0134,-2.65905 0.0196,-5.31807 0.0257,-7.97714 0.008,-1.90552 0.0162,-3.81105 0.0248,-5.71657 0.0262,-6.26097 0.0415,-12.52194 0.0558,-18.78294 0.005,-2.15677 0.0107,-4.31354 0.0161,-6.47031 0.0216,-8.97309 0.0404,-17.94619 0.0516,-26.91931 0.0162,-12.85145 0.0494,-25.7026 0.1064,-38.55393 0.0387,-9.040506 0.0582,-18.080928 0.0635,-27.12151 0.004,-5.397266 0.0156,-10.794209 0.0481,-16.191386 0.0301,-5.080835 0.0364,-10.161153 0.0246,-15.242059 -2.2e-4,-1.859939 0.008,-3.719902 0.0257,-5.579758 0.18805,-15.010577 1.41475,-17.279978 -6.31626,-26.870173 -6.78813,-6.1976493 -11.35508,-6.6051677 -18.02841,-6.6169504 l -1.9762,-0.011593 c -2.17157,-0.010267 -4.34287,-0.00635 -6.51445,-0.00237 -1.56262,-0.00435 -3.12524,-0.00953 -4.68785,-0.015488 -4.23568,-0.013372 -8.47126,-0.013971 -12.70695,-0.011437 -3.54106,0.00107 -7.08209,-0.00382 -10.62314,-0.00861 -8.35797,-0.011089 -16.71589,-0.011536 -25.07386,-0.00549 -8.60918,0.00604 -17.2182,-0.00626 -25.82735,-0.02757 -7.402336,-0.017642 -14.804618,-0.023613 -22.206973,-0.020362 -4.416219,0.00181 -8.832321,-7.868e-4 -13.24852,-0.014714 -4.155782,-0.012616 -8.311309,-0.010599 -12.467087,0.00241 -1.520092,0.00236 -3.040203,-3.385e-4 -4.560274,-0.00862 C 39.008306,7.5630818 30.045786,7.9434164 21.6875,14.6875 Z"
     fill="#f2f2f4"
     id="path3" />
  <path
     d="m 34,193 h 158 v 29 H 116 V 205 H 60 v 17 c -3.230067,0.10817 -6.456498,0.18739 -9.6875,0.25 l -2.763672,0.10156 c -4.366526,0.0635 -5.448223,-1.64916 -9.243003,-3.97701 C 31.088467,210.43693 34,207.89857 34,193 Z"
     fill="#f1f1f3"
     id="path4" />
  <path
     d="m 63,139.84666 c 1.580505,-0.0184 -0.0198,0.005 15.086741,0.0257 -0.02937,15.25764 0.04304,0.0167 -0.04404,15.21963 -14.968529,-0.10663 0.11578,0.0413 -14.999327,-0.0945 C 62.964264,139.89013 62.944182,144.89664 63,139.84666 Z"
     fill="#0d0d0d"
     id="path5" />
  <path
     d="m 63.002904,74.780446 c 15.051972,-0.08309 0.0159,0.05371 15.040467,-0.03819 0.05183,14.993423 0.09875,0.03939 -0.04585,15.257745 -4.665468,0.128873 0.07758,0.0533 -14.997522,0 -0.02768,-15.307719 -0.01231,0.02237 0.0029,-15.219554 z"
     fill="#0b0b0b"
     id="path6" />
  <path
     d="m 63,43 c 15.062492,0.03311 -0.01871,-0.06274 15,0.0025 -0.04316,13.724934 -0.06509,0.995438 -0.04585,14.86741 -14.939308,0.08696 0.0021,0.02165 -14.91078,0.08426 C 62.915801,53.288562 63.075922,57.858374 63,43 Z"
     fill="#0b0b0b"
     id="path7" />
  <path
     d="m 63,108 c 4.95,0 9.9,0 15,0 0,4.62 0,9.24 0,14 -4.95,0 -9.9,0 -15,0 0,-4.62 0,-9.24 0,-14 z"
     fill="#070708"
     id="path8" />
</svg>
