<?xml version="1.0" encoding="UTF-8" standalone="no"?>
<svg
   version="1.1"
   width="1044.032"
   height="1181.9757"
   id="svg15"
   sodipodi:docname="mjs-logo.svg"
   inkscape:version="1.4.2 (f4327f4, 2025-05-13)"
   xmlns:inkscape="http://www.inkscape.org/namespaces/inkscape"
   xmlns:sodipodi="http://sodipodi.sourceforge.net/DTD/sodipodi-0.dtd"
   xmlns="http://www.w3.org/2000/svg"
   xmlns:svg="http://www.w3.org/2000/svg">
  <sodipodi:namedview
     id="namedview1"
     pagecolor="#505050"
     bordercolor="#eeeeee"
     borderopacity="1"
     inkscape:showpageshadow="0"
     inkscape:pageopacity="0"
     inkscape:pagecheckerboard="0"
     inkscape:deskcolor="#505050"
     inkscape:zoom="0.11561015"
     inkscape:cx="748.20422"
     inkscape:cy="142.72104"
     inkscape:window-width="1920"
     inkscape:window-height="991"
     inkscape:window-x="1911"
     inkscape:window-y="-9"
     inkscape:window-maximized="1"
     inkscape:current-layer="svg15" />
  <defs
     id="defs15" />
  <path
     d="m 531.95135,9.0478515e-7 c 0,0 449.62655,252.58899909521485 512.08075,287.63030909521484 -0.049,108.30277 -1.1623,454.78682 -0.1938,607.00549 -84.8995,47.73473 -448.61958,251.9691 -511.92029,287.3399 C 464.52423,1144.0837 23.477606,896.33091 0.03809639,883.25297 0.02557639,831.36808 0.05878639,352.78302 -3.6132813e-6,298.91021 26.191376,284.1864 531.95135,9.0478515e-7 531.95135,9.0478515e-7 Z M 96.299326,355.00541 c 0.002,66.86845 -0.0264,420.18155 -0.006,471.88076 C 174.09217,870.52405 475.1516,1039.739 532.06559,1071.7036 609.18566,1028.3083 869.3209,882.24948 947.7298,838.25432 c -0.074,-63.35552 0,-429.29995 -0.1309,-494.39117 C 895.3838,314.6407 544.19299,117.37333 531.97123,110.38514 503.58106,126.44824 110.18251,347.38579 96.299326,355.00541 Z"
     fill="#182B48"
     id="path1"
     style="display:inline;fill:#ffffff;fill-opacity:1;stroke-width:1" />
  <path
     d="m 411.80036,249.38322 c 8.02833,2.51031 31.81449,12.00084 47.24629,39.75488 8.08191,17.0046 8.71649,40.86287 2.89264,58.68577 -3.53229,9.81258 -10.26779,17.6692 -17.64957,24.89115 -9.79801,9.14546 -21.34543,17.54473 -35.32173,17.7625 -8.48802,-1.59449 -17.16276,-6.40566 -22.23709,-13.31078 -5.31565,-8.88678 -9.14135,-17.09981 -6.74948,-27.4498 2.92143,-8.28227 7.70697,-13.60736 15.5818,-17.65896 3.85514,-1.77278 7.75061,-3.41489 11.69104,-4.99525 25.68292,-9.99654 -9.97839,-51.68118 -45.89414,-19.40786 -19.34517,16.4723 -44.11686,91.58687 31.9178,116.4035 31.37093,6.41304 56.50194,-7.59746 82.52189,-22.57356 127.78705,-64.09997 169.67711,-135.38332 260.28024,-74.27787 19.7056,13.92203 32.54069,32.99814 37.29911,56.58562 3.91735,25.93676 -2.89857,53.16056 -18.80211,74.30375 -14.62906,20.29822 -34.08211,35.9408 -53.51366,51.58668 38.44579,126.4513 42.59592,134.47729 84.78031,264.89397 -41.57379,-0.44316 -11.62114,0.35952 -48.14032,-0.80801 -37.80548,-111.65741 -39.02671,-117.19548 -89.72804,-257.55997 -27.58595,27.89413 -53.27459,53.55936 -84.33071,84.29053 -3.62848,4.94355 -3.6323,10.19803 -3.59847,16.03433 -0.67057,137.92894 1.5147,204.56311 1.00944,220.06339 -5.93515,54.07502 -71.8919,113.46572 -131.68523,109.63275 -86.17873,4.27369 -155.70778,-70.22106 -144.84598,-154.06257 15.1324,-71.17185 46.13886,-144.80414 101.4657,-305.75517 1.14225,-3.52471 1.20844,-6.18581 0.74081,-9.8583 -6.4128,-8.03565 -24.95699,-6.25178 -55.92418,-35.02216 -36.34489,-33.74057 -38.94204,-68.83993 -39.305,-83.87827 -0.44027,-31.60793 7.19683,-63.06705 29.86628,-86.74379 7.99862,-7.64636 45.49007,-37.4537 90.43236,-21.5265 z m 210.20746,119.42916 c -44.58052,30.73447 -9.5145,8.12429 -66.77342,48.86231 3.93163,93.62798 1.34602,19.78412 6.24227,129.79769 87.48678,-87.80973 39.98803,-39.2762 108.8979,-108.91126 11.53309,19.58781 0.91802,1.58469 12.36883,20.955 4.69175,0.84441 7.54223,0.4363 11.63079,-1.95224 9.68598,-6.97401 20.15327,-16.46995 25.0092,-27.39063 l 1.18643,-2.44771 c 5.48996,-13.72181 4.86205,-32.17647 -0.71186,-45.76322 -2.14802,-4.33325 -4.41442,-8.41383 -7.22404,-12.36794 l -1.98869,-2.95794 c -8.3818,-9.28316 -22.95326,-14.46125 -35.27276,-15.25194 -20.70907,-0.54628 -35.96293,7.06213 -53.36465,17.42788 z M 447.47614,471.82121 c 65.35166,68.77864 2.77374,2.97894 67.4172,70.3234 -2.62188,-99.00528 0.25777,-9.28984 -2.81513,-102.50592 -62.33927,30.12218 -3.41895,1.31869 -64.60207,32.18252 z M 333.16402,774.8121 c -27.00729,100.6505 57.34867,127.92945 83.08088,127.1172 48.22585,2.05807 89.71308,-27.77339 97.31544,-68.88878 2.15088,-66.71839 1.63024,-134.66367 1.89621,-201.665 -3.74486,-44.00092 -2.72407,-28.93053 -89.90688,-121.4416 -25.54971,60.97707 -86.00004,224.79387 -92.38565,264.87818 z"
     fill="#818181"
     id="path2-7"
     style="display:inline;fill:#ffffff;fill-opacity:1;stroke:none;stroke-width:3;stroke-dasharray:none;stroke-opacity:1" />
  <path
     style="display:none;fill:#ffffff;stroke:#ffffff;stroke-width:1;stroke-dasharray:none"
     d="M 532.0159,-29.588555 532.0609,1326.62"
     id="path3-4" />
  <path
     style="display:none;fill:#ffffff;stroke:#ffffff;stroke-width:1;stroke-dasharray:none"
     d="m 1043.9525,-49.05941 0.045,1280.10041"
     id="path3" />
  <path
     style="display:none;fill:#ffffff;stroke:#ffffff;stroke-width:1;stroke-dasharray:none"
     d="m 947.7398,-46.840742 0.045,1280.100442"
     id="path3-9" />
  <path
     style="display:none;fill:#ffffff;stroke:#ffffff;stroke-width:1;stroke-dasharray:none"
     d="m 96.269826,-36.83071 0.045,1280.10041"
     id="path3-3" />
  <path
     style="display:none;fill:#ffffff;stroke:#ffffff;stroke-width:1;stroke-dasharray:none"
     d="m 0.05712639,-34.61204 0.045,1280.10044"
     id="path3-9-8" />
  <path
     style="display:none;fill:#ffffff;stroke:#ffffff;stroke-width:1;stroke-dasharray:none"
     d="M -16.206284,-197.52578 1099.8603,429.4132"
     id="path3-3-2-1-8" />
  <path
     style="display:none;fill:#ffffff;stroke:#ffffff;stroke-width:1;stroke-dasharray:none"
     d="M 944.4468,-121.32812 -171.61984,505.61086"
     id="path3-3-2-1" />
  <path
     style="display:none;fill:#ffffff;stroke:#ffffff;stroke-width:1;stroke-dasharray:none"
     d="M 895.3943,-204.12708 -220.67223,422.8119"
     id="path3-9-8-5-8" />
  <path
     style="display:none;fill:#ffffff;stroke:#ffffff;stroke-width:1;stroke-dasharray:none"
     d="M 32.846206,-280.32474 1148.9127,346.61424"
     id="path3-9-8-5-8-3" />
  <path
     style="display:none;fill:#ffffff;stroke:#ffffff;stroke-width:1;stroke-dasharray:none"
     d="M 1345.0335,725.34182 228.9668,1352.2809"
     id="path3-3-2-1-3" />
  <path
     style="display:none;fill:#ffffff;stroke:#ffffff;stroke-width:1;stroke-dasharray:none"
     d="M 1295.981,642.54286 179.91441,1269.4819"
     id="path3-9-8-5-8-9" />
  <path
     style="display:none;fill:#ffffff;stroke:#ffffff;stroke-width:1;stroke-dasharray:none"
     d="M -203.64547,768.76557 912.4213,1395.7046"
     id="path3-3-2-1-3-0" />
  <path
     style="display:none;fill:#ffffff;stroke:#ffffff;stroke-width:1;stroke-dasharray:none"
     d="M -154.59297,685.96657 961.4737,1312.9056"
     id="path3-9-8-5-8-9-8" />
  <path
     style="display:none;fill:#ffffff;stroke:#ffffff;stroke-width:1;stroke-dasharray:none"
     d="m 1179.5677,0.1069299 -1280.10046,0.045"
     id="path3-9-8-5-0" />
</svg>
