<?xml version="1.0" encoding="UTF-8" standalone="no"?>
<svg
   version="1.1"
   width="1268"
   height="1280"
   id="svg209"
   xmlns="http://www.w3.org/2000/svg"
   xmlns:svg="http://www.w3.org/2000/svg">
  <defs
     id="defs209" />
  <path
     d="m 443.34604,269.02837 c 36.87933,-13.20772 57.06811,-8.07307 71.92925,-1.80294 24.11525,11.29486 44.36844,27.14616 54.21875,52.6211 7.42406,21.57069 8.62241,47.89031 -1.00781,68.88281 -11.05271,20.71223 -29.58969,37.51876 -52,45 -10.67589,2.47349 -19.36748,0.062 -28.625,-5.625 -10.36979,-7.42551 -18.68012,-18.66076 -21.8125,-31.125 -1.81146,-11.02981 0.14798,-19.90821 6.66406,-29.0625 6.00282,-7.40435 13.37703,-11.95798 21.63672,-16.42578 2.57125,-1.44413 4.84324,-2.92127 7.13672,-4.76172 -0.29146,-5.26995 -0.29146,-5.26995 -3.375,-9.375 -4.81328,-2.97965 -9.1122,-3.22996 -14.625,-2.625 -12.20631,3.34289 -20.55051,10.2367 -27,21 -9.03718,17.32926 -11.99402,36.50565 -6.32031,55.33203 5.51024,15.30805 13.78076,27.60512 28.6875,34.8125 2.51578,1.07302 5.03911,1.98833 7.63281,2.85547 l 2.59766,0.91016 c 20.77871,6.28329 40.76585,0.66579 59.40234,-8.91016 7.55212,-4.11422 14.97218,-8.45999 22.4068,-12.78128 6.15427,-3.56548 12.3847,-6.98697 18.62539,-10.39816 18.45517,-10.09541 36.45313,-20.75703 54.13797,-32.15381 7.19836,-4.63759 14.44489,-9.15151 21.82837,-13.48706 2.31224,-1.36286 4.6158,-2.73984 6.91944,-4.11719 87.59443,-52.26303 87.59443,-52.26303 132.08203,-41.0625 30.26773,8.32866 61.19677,28.48435 77.07959,55.86084 13.0365,23.44161 18.34898,49.4427 11.24463,75.77197 -8.44269,28.61818 -22.97338,49.13453 -43.88672,70.24219 l -2.60083,2.63159 c -5.92777,5.88504 -12.04747,11.09869 -19.0752,15.62769 -3.13534,2.11646 -4.61448,3.30278 -5.58593,7.02319 -0.20091,4.39794 0.70084,7.83529 2.12133,11.92847 l 0.78824,2.38896 c 0.87435,2.63824 1.76972,5.26886 2.66489,7.9001 0.63241,1.89594 1.2634,3.79236 1.89307,5.68921 1.73302,5.20879 3.48399,10.41139 5.23816,15.6131 3.11416,9.24887 6.19659,18.50842 9.28561,27.76571 0.81036,2.42773 1.62126,4.85528 2.43268,7.28266 7.2575,21.71272 14.28305,43.49295 21.22098,65.30949 2.71154,8.51737 5.45081,17.02565 8.19903,25.53124 l 0.65078,2.0142 c 1.09045,3.37465 2.18119,6.74921 3.27204,10.12374 6.48774,20.07064 12.95281,40.14773 19.28128,60.26928 l 0.64295,2.04392 c 0.41126,1.31093 0.8209,2.62238 1.22876,3.93438 1.14604,3.67901 2.33142,7.3415 3.55407,10.99582 l 0.84183,2.5566 c 0.53589,1.62574 1.08076,3.24856 1.63642,4.86764 1.65953,5.07714 2.2477,9.2811 1.87234,14.62801 -1.35547,2.46094 -1.35547,2.46094 -3.1875,4.375 l -1.79297,1.96094 c -5.31854,4.38239 -11.00662,3.97093 -17.57812,3.96484 l -3.0967,0.013 c -2.15762,0.006 -4.31526,0.006 -6.47288,0.002 -3.2942,-0.003 -6.58751,0.0203 -9.8816,0.0457 -2.0996,0.002 -4.19921,0.003 -6.29882,0.002 l -2.97399,0.0279 c -7.34824,-0.0495 -11.89707,-1.33737 -17.24379,-6.58504 -4.95856,-5.99586 -6.79422,-13.40243 -9.05176,-20.70459 -0.50998,-1.59558 -1.0221,-3.19049 -1.53619,-4.78476 -1.08605,-3.37451 -2.16233,-6.75192 -3.23212,-10.13162 -2.43752,-7.67579 -4.99061,-15.31326 -7.53104,-22.95544 -1.44568,-4.35496 -2.88197,-8.71301 -4.31832,-13.07105 l -0.87597,-2.6572 c -0.89289,-2.70879 -1.78556,-5.41764 -2.67823,-8.12649 l -0.92733,-2.81324 c -7.23567,-21.95181 -14.45435,-43.90667 -21.44767,-65.93695 -6.81485,-21.46636 -13.81957,-42.86926 -20.85165,-64.26527 -0.89381,-2.72091 -1.78641,-5.44221 -2.67868,-8.16362 -1.40676,-4.28991 -2.81678,-8.57872 -4.22938,-12.8667 -0.52621,-1.59877 -1.05141,-3.19786 -1.57555,-4.79731 -0.7237,-2.20747 -1.45128,-4.41364 -2.17988,-6.6195 l -1.23996,-3.76889 c -0.89604,-2.51531 -1.84774,-4.80391 -3.1199,-7.14371 -4.62984,1.41454 -6.84593,3.68331 -9.99072,7.30371 -0.97145,1.09604 -1.94561,2.18966 -2.92218,3.28113 l -1.53224,1.71367 c -2.53768,2.777 -5.19367,5.4296 -7.86492,8.07747 l -1.65518,1.64224 c -1.13775,1.12656 -2.27642,2.25221 -3.41594,3.37699 -1.82022,1.79772 -3.63605,3.59979 -5.45076,5.40307 -5.15011,5.11694 -10.30472,10.2293 -15.46933,15.3316 -3.18334,3.14554 -6.35919,6.29848 -9.53048,9.45617 -1.1988,1.19081 -2.40037,2.37885 -3.60485,3.56392 -1.68363,1.65693 -3.35754,3.32315 -5.02971,4.99163 l -1.47995,1.44251 c -5.50234,5.53422 -9.5865,10.98963 -9.716,19.00403 l 0.0365,2.43278 -0.021,2.64868 c -0.0172,2.91161 10e-4,5.82189 0.0191,8.73348 -0.005,2.09516 -0.0126,4.19032 -0.022,6.28547 -0.0155,4.50604 -0.0154,9.0117 -0.003,13.51774 0.0196,7.14337 0.004,14.28642 -0.0154,21.42977 -0.0272,11.31849 -0.0306,22.63684 -0.0242,33.95535 0.0109,20.21569 -0.0139,40.43133 -0.0538,60.64698 -0.013,7.08091 -0.0144,14.16171 -0.006,21.24263 0.004,4.4358 -7.2e-4,8.87156 -0.007,13.30735 -10e-4,2.0343 10e-4,4.0686 0.007,6.10289 0.12549,43.67385 -8.91875,80.60444 -39.24846,113.10874 -1.10883,1.28767 -2.21319,2.5792 -3.3125,3.875 -24.52544,27.87743 -58.69472,48.98546 -96.44189,51.99166 -41.72323,2.4768 -80.59804,-8.334 -112.37061,-36.24166 -1.63354,-1.53261 -3.25826,-3.07467 -4.875,-4.625 L 415.73232,980.202 C 390.28191,956.35135 373.176,924.0037 367.48623,889.72934 l -0.57812,-3.26563 c -2.66404,-23.58164 0.72068,-46.69809 7.32812,-69.3164 l 0.57077,-1.96144 c 5.5065,-18.84372 11.91965,-37.39722 18.24881,-55.97637 1.68699,-4.95715 3.36618,-9.91694 5.04565,-14.87664 0.67262,-1.98606 1.34526,-3.97212 2.01792,-5.95816 l 1.00086,-2.95513 c 0.98764,-2.91492 1.97619,-5.82952 2.96502,-8.74403 4.85056,-14.29894 9.6479,-28.61454 14.40097,-42.9462 4.74267,-14.28536 9.5598,-28.54261 14.45056,-42.77792 4.05206,-11.80149 8.02788,-23.62744 11.9635,-35.46817 l 0.72385,-2.17686 c 2.40204,-7.22394 4.80152,-14.4487 7.19191,-21.6765 1.12202,-3.39083 2.24704,-6.78066 3.37331,-10.17008 l 0.6621,-1.99416 c 2.42205,-7.28318 4.89809,-14.54266 7.4961,-21.76512 l 0.70419,-1.95809 c 1.10302,-3.05982 2.2153,-6.11595 3.33811,-9.16857 l 1.18914,-3.26518 1.04633,-2.83867 c 0.91734,-2.92037 1.51916,-5.69866 1.8609,-8.74068 -1.90728,-2.90489 -4.75864,-3.98921 -7.86719,-5.38281 l -2.91455,-1.33399 -3.09326,-1.4082 c -33.70651,-15.77242 -63.11513,-45.68743 -76.66016,-80.67188 -12.48296,-36.79993 -10.09961,-76.76908 6.66797,-111.73046 6.41234,-12.85852 14.41459,-23.55968 24.86719,-33.47266 9.30008,-9.51703 21.85239,-15.2047 29.85981,-18.70097 z m 297.14019,140.76347 c -1.18351,0.66788 -2.36744,1.33502 -3.55176,2.00146 -3.48936,1.96719 -6.96931,3.95048 -10.44824,5.93604 l -2.91211,1.65674 c -4.29155,2.44177 -8.57733,4.89319 -12.85742,7.35498 -3.79417,2.17736 -7.60683,4.31875 -11.42969,6.44531 l -3.15137,1.75928 c -2.00171,1.11611 -4.00612,2.22742 -6.01367,3.33301 -9.50356,5.01739 -9.50356,5.01739 -15.63574,13.45068 -0.2765,2.14484 -0.2765,2.14484 -0.20255,4.42926 l 0.0172,2.6684 0.0501,2.90332 0.0287,3.07562 c 0.0337,3.35486 0.0818,6.70935 0.13002,10.06402 0.0262,2.32598 0.0514,4.65197 0.0758,6.97797 0.0666,6.12231 0.14555,12.24439 0.22696,18.36652 0.0809,6.24706 0.1503,12.49426 0.22064,18.74145 0.13973,12.25797 0.29239,24.51573 0.45313,36.77344 11.10887,-2.42882 21.83692,-17.75358 29.59789,-25.58385 2.60868,-2.63093 5.2215,-5.25769 7.83557,-7.88327 7.42535,-7.45875 14.84643,-14.92172 22.25721,-22.39494 4.55027,-4.58801 9.1079,-9.16859 13.67026,-13.74456 1.72865,-1.73667 3.45452,-3.4761 5.17748,-5.21841 2.41134,-2.43797 4.83197,-4.86636 7.2548,-7.29289 l 2.12119,-2.15863 c 4.45097,-4.43321 9.25436,-9.20182 15.0856,-11.72345 4.46245,0.42501 6.80614,1.85184 10,5 1.64113,2.48729 2.98494,5.0848 4.3125,7.75 l 1.08789,2.11328 c 0.87687,1.70697 1.73969,3.42115 2.59961,5.13672 6.95333,-0.73128 10.74778,-5.86332 15,-11 8.12076,-12.67104 9.57351,-26.17372 6.87891,-40.77734 -2.57998,-9.4599 -7.16097,-19.15409 -15.87891,-24.22266 -8.53278,-4.42991 -16.55232,-6.54883 -26.1875,-6.6875 l -2.37012,-0.0584 c -12.21922,0.2414 -23.10803,6.90366 -33.44238,12.80835 z m -149.67578,87.57031 -3.25977,1.69531 -3.37695,1.79688 -3.3418,1.72656 c -6.20083,3.25775 -11.92724,6.69883 -17.3457,11.14844 1.39429,4.33693 3.40123,6.69734 6.6875,9.8125 2.96538,2.87271 5.8474,5.71122 8.5,8.875 3.65694,4.25471 7.56655,8.25277 11.5,12.25 l 1.98315,2.04761 1.90357,1.91723 1.70581,1.73413 c 1.90357,1.70171 1.90357,1.70171 5.71997,2.36353 v -58 c -4.96532,0 -6.46419,0.43452 -10.67578,2.63281 z m -61.32422,84.36719 c -4.03601,8.44408 -6.85812,17.24711 -9.76953,26.12109 -0.55811,1.68895 -1.11673,3.37773 -1.67584,5.06635 -1.18119,3.56889 -2.36021,7.13849 -3.53757,10.70865 -3.05665,9.26415 -6.13708,18.52041 -9.22018,27.77578 l -0.91392,2.74379 c -10.68956,32.07626 -22.35299,63.65877 -34.76577,95.10778 -4.9018,12.42264 -9.61703,24.90212 -14.11719,37.47656 l -0.98486,2.70264 c -13.62544,37.56559 -22.61054,84.55367 -5.3855,122.48535 5.99624,12.42195 14.24831,21.1361 26.37036,27.81201 l 2.32031,1.35937 c 19.58818,10.75691 46.16416,13.2763 67.625,7.60938 l 3.05469,-0.96875 3.30469,-1.03125 c 17.46337,-6.08136 32.43827,-18.57393 41.26562,-34.86719 4.1408,-8.85188 6.8308,-17.64664 8.09293,-27.33224 l 0.38297,-2.89829 c 1.23734,-10.06776 1.37706,-20.04999 1.34197,-30.18011 0.004,-2.02316 0.009,-4.04632 0.0159,-6.06948 0.0135,-5.4188 0.008,-10.83744 -10e-4,-16.25625 -0.008,-5.70514 -5.3e-4,-11.41026 0.004,-17.1154 0.005,-9.56344 -0.002,-19.1268 -0.016,-28.69022 -0.0164,-11.03042 -0.011,-22.06068 0.005,-33.0911 0.0136,-9.51479 0.0155,-19.02954 0.008,-28.54433 -0.005,-5.66412 -0.005,-11.32815 0.005,-16.99226 0.009,-5.31739 0.003,-10.63457 -0.0147,-15.95194 -0.004,-1.94295 -0.003,-3.88591 0.004,-5.82885 0.0562,-18.0787 -2.00823,-31.44168 -14.75736,-45.10422 l -1.58037,-1.70219 c -6.12521,-6.55068 -12.49523,-12.854 -18.87288,-19.15718 -13.42699,-13.27255 -13.42699,-13.27255 -18.69995,-19.46851 -2.4478,-2.82864 -5.08342,-5.46038 -7.73755,-8.09399 l -1.5625,-1.57422 c -4.32665,-4.6333 -4.32665,-4.6333 -10.1875,-6.05078 z"
     fill="#fefefe"
     id="path1"
     style="display:inline" />
  <path
     d="m 633.4375,33.5 2.37695,1.35083 c 5.77623,3.295815 11.51247,6.662138 17.23511,10.050049 6.53986,3.871574 13.11674,7.677652 19.70044,11.474121 l 3.39917,1.960205 c 5.88484,3.390047 11.77715,6.766428 17.67944,10.125977 9.85782,5.611032 19.64892,11.33042 29.4253,17.081634 9.06814,5.331818 18.18567,10.564331 27.35717,15.716954 11.88874,6.68943 23.64107,13.61257 35.40943,20.51074 10.82514,6.34239 21.66733,12.64435 32.60449,18.79199 8.31977,4.67643 16.55668,9.47462 24.75879,14.354 7.45116,4.42141 14.96199,8.73442 22.49121,13.021 9.88118,5.6258 19.72538,11.31062 29.53857,17.05444 6.34065,3.7078 12.70313,7.37425 19.08643,11.00806 7.3824,4.20257 14.73118,8.45897 22.0625,12.75 8.78135,5.13863 17.59755,10.21314 26.4375,15.25 9.83897,5.60609 19.6409,11.27194 29.41406,16.99219 6.34045,3.70776 12.70274,7.37408 19.08594,11.00781 7.3824,4.20257 14.7312,8.45897 22.0625,12.75 8.7814,5.13863 17.5976,10.21298 26.4375,15.25 9.7104,5.53368 19.3892,11.11825 29.0339,16.76587 5.2726,3.08566 10.5545,6.15394 15.8528,9.19507 l 1.7554,1.00847 c 2.7876,1.60128 5.5766,3.20009 8.3682,4.79451 23.3236,13.38949 23.3236,13.38949 27.7397,19.79858 l 1.2344,1.75391 c 1.7822,2.95435 2.1409,5.47342 2.1433,8.83764 l 0.01,2.58211 -0.01,2.8433 0.01,3.02785 c 0.01,3.38101 0,6.76198 0,10.143 l 0.01,7.30607 c 0.01,6.01232 0.01,12.02463 0.01,18.03695 9e-4,7.19878 0.01,14.39756 0.014,21.59633 0.016,17.40068 0.022,34.80136 0.027,52.20204 0,8.22885 0.01,16.4577 0.01,24.68655 0.013,28.15865 0.024,56.3173 0.027,84.47595 l 6e-4,5.30452 7e-4,5.31746 c 4e-4,3.55602 9e-4,7.11204 10e-4,10.66806 l 3e-4,2.67178 c 0,28.5956 0.019,57.19118 0.043,85.78678 0.025,30.2207 0.038,60.4414 0.04,90.66212 2e-4,3.31606 4e-4,6.63212 6e-4,9.94819 l 2e-4,2.47433 c 0,13.15282 0.012,26.3056 0.027,39.45841 0.014,13.21485 0.018,26.42967 0.01,39.64453 0,7.85481 -6e-4,15.70952 0.015,23.56432 0.011,5.85946 0.01,11.71884 -0.01,17.5783 0,2.37485 10e-4,4.74972 0.01,7.12455 0.011,3.22007 0,6.43958 -0.01,9.65963 l 0.023,2.81491 c -0.062,7.66213 -1.7273,13.17258 -7.3012,18.74057 -5.2897,5.04292 -11.2133,8.47342 -17.5937,11.96484 -1.1697,0.65474 -2.3385,1.31109 -3.5064,1.96899 -2.2984,1.29354 -4.6003,2.58019 -6.9048,3.86304 -3.8588,2.1618 -7.6656,4.40206 -11.4638,6.66797 -7.3492,4.35238 -14.767,8.58339 -22.1875,12.8125 -9.8666,5.62317 -19.7002,11.29813 -29.5027,17.03247 -12.7073,7.43093 -25.4699,14.76603 -38.2259,22.11303 -11.58576,6.6741 -23.1644,13.3593 -34.70894,20.1045 -18.06549,10.5533 -36.20153,20.9822 -54.37585,31.3466 -7.38306,4.2117 -14.74026,8.4617 -22.05188,12.7962 -6.67008,3.9415 -13.40358,7.7715 -20.13477,11.6072 -9.86661,5.623 -19.70019,11.2981 -29.50269,17.0325 -10.51718,6.1502 -21.07339,12.2321 -31.63061,18.3132 -3.33034,1.9194 -6.65929,3.8411 -9.98779,5.7637 -9.86276,5.696 -19.73017,11.3823 -29.62891,17.0156 -9.0267,5.139 -17.98205,10.3968 -26.93436,15.6638 -9.23583,5.4311 -18.52377,10.7586 -27.8652,16.0066 -6.06473,3.411 -12.07792,6.8963 -18.0625,10.4456 -6.75394,3.9931 -13.5708,7.8752 -20.38794,11.759 -7.95186,4.5303 -15.89082,9.0793 -23.78857,13.7036 -2.92925,1.7151 -5.863,3.4222 -8.79737,5.1284 -4.06425,2.365 -8.10579,4.7649 -12.14062,7.1797 -2.04908,1.2051 -4.09855,2.4096 -6.14844,3.6133 l -2.81567,1.7156 c -5.69244,3.3084 -10.13779,5.0336 -16.74683,3.9094 -2.76562,-0.8906 -2.76562,-0.8906 -5.25,-2.25 l -3.09375,-1.6719 c -1.21976,-0.6909 -2.43841,-1.3838 -3.65625,-2.0781 l -2.20312,-1.2363 c -11.24598,-6.3121 -22.37198,-12.8342 -33.50538,-19.3421 -11.73476,-6.8576 -23.51382,-13.6381 -35.2915,-20.4216 -12.64303,-7.2819 -25.28132,-14.5705 -37.875,-21.9375 -9.2683,-5.4207 -18.57964,-10.7631 -27.90842,-16.0787 -9.24381,-5.2684 -18.4481,-10.6014 -27.63064,-15.976 -7.19086,-4.2051 -14.41478,-8.3487 -21.65406,-12.4697 -7.6957,-4.3876 -15.34399,-8.8545 -22.99047,-13.3272 -6.45958,-3.7743 -12.93966,-7.5098 -19.44141,-11.2109 -7.52835,-4.2855 -15.0225,-8.6263 -22.5,-13 -10.95809,-6.4078 -21.96771,-12.721 -33,-19 -11.93996,-6.7955 -23.84649,-13.643 -35.7063,-20.5776 -7.41602,-4.3341 -14.85031,-8.6355 -22.2937,-12.9224 -8.34802,-4.8085 -16.68243,-9.6391 -25,-14.5 -11.54722,-6.7471 -23.12902,-13.4334 -34.71777,-20.1089 -5.42883,-3.1279 -10.85542,-6.25968 -16.28223,-9.3911 -2.16666,-1.25002 -4.33332,-2.50002 -6.5,-3.75 l -13,-7.5 -3.2522,-1.87622 c -2.15939,-1.24584 -4.31874,-2.49177 -6.47802,-3.73779 -6.65853,-3.84214 -13.31914,-7.68062 -19.98121,-11.51661 -3.27418,-1.88755 -6.54524,-3.78043 -9.81591,-5.67407 -3.68739,-2.13372 -7.38536,-4.24505 -11.10157,-6.32812 C 94.39355,941.11618 94.39355,941.11618 91.00076,930 c -0.41807,-3.37166 -0.40488,-6.70869 -0.38032,-10.10288 l -0.0141,-3.05208 c -0.012,-3.38423 -0.003,-6.76806 0.007,-10.15229 -0.004,-2.44706 -0.01,-4.89412 -0.0163,-7.34118 -0.0115,-5.32518 -0.0136,-10.65024 -0.007,-15.97542 0.009,-7.91868 0.001,-15.83729 -0.0103,-23.75596 -0.0197,-14.1424 -0.022,-28.28477 -0.0168,-42.42718 0.005,-12.37618 0.004,-24.75234 -0.002,-37.12851 l -0.002,-4.97824 -0.003,-7.50151 c -0.0107,-23.24993 -0.0154,-46.49985 -0.008,-69.74978 l 9e-4,-2.65636 c 0.002,-7.11884 0.005,-14.23767 0.008,-21.35651 0.0101,-27.77389 0.002,-55.54773 -0.0215,-83.32161 -0.0261,-31.19668 -0.0389,-62.39333 -0.0318,-93.59002 7.1e-4,-3.32499 0.001,-6.64998 0.002,-9.97497 l 5.1e-4,-2.48094 c 0.002,-12.36909 -0.006,-24.73814 -0.0188,-37.10722 -0.0149,-14.06273 -0.0158,-28.12538 0.002,-42.18811 0.01,-7.87263 0.008,-15.74509 -0.009,-23.61771 -0.0117,-5.87256 -0.003,-11.74498 0.0148,-17.61753 0.004,-2.38012 7.7e-4,-4.76025 -0.01,-7.14035 -0.0131,-3.22726 -0.002,-6.45354 0.016,-9.68076 l -0.0292,-2.82117 c 0.0838,-7.42054 2.28338,-12.44699 7.59232,-17.80515 4.44801,-4.23789 9.60539,-7.11319 14.9375,-10.10156 l 3.18896,-1.82397 c 3.26356,-1.86263 6.53592,-3.70883 9.81104,-5.55103 1.97147,-1.11307 3.94283,-2.22635 5.91406,-3.33984 2.85821,-1.61359 5.717,-3.22607 8.57813,-4.83448 7.47301,-4.20995 14.85723,-8.55812 22.22778,-12.94433 7.6156,-4.51936 15.31351,-8.88231 23.03272,-13.22168 6.23003,-3.50661 12.41388,-7.07962 18.56518,-10.72217 9.71347,-5.74465 19.50777,-11.35047 29.28711,-16.98193 5.46672,-3.14889 10.9308,-6.30235 16.39502,-9.45557 6.52232,-3.76365 13.04514,-7.52645 19.57031,-11.28516 10.49201,-6.04539 20.97448,-12.10599 31.42969,-18.21484 17.166,-10.02898 34.39198,-19.95274 51.66528,-29.79565 5.26269,-3.00428 10.4959,-6.05368 15.70972,-9.14185 6.65869,-3.94373 13.38082,-7.767 20.125,-11.5625 7.31518,-4.11773 14.59365,-8.28463 21.81665,-12.56177 6.34751,-3.75402 12.73146,-7.44351 19.12085,-11.12573 l 3.35034,-1.93091 c 3.40377,-1.96102 6.80792,-3.92138 10.21216,-5.88159 4.37551,-2.51995 8.75056,-5.04069 13.125,-7.5625 l 3.26782,-1.88379 c 7.17477,-4.13993 14.33221,-8.30863 21.48218,-12.49121 9.27,-5.421712 18.58332,-10.764549 27.91345,-16.081726 8.13725,-4.638526 16.25126,-9.314571 24.33655,-14.043274 18.66219,-10.914631 37.40326,-21.691295 56.18652,-32.395996 l 3.30567,-1.885254 3.20996,-1.828125 c 2.15874,-1.243816 4.30756,-2.50496 6.44726,-3.78125 l 3.1709,-1.890625 2.80518,-1.693359 C 618.00075,25.275219 624.56154,28.34434 633.4375,33.5 Z m -23.86719,128.28906 -3.12231,1.83277 -3.323,2.00317 c -1.15834,0.68529 -2.31745,1.36927 -3.4773,2.052 -2.38659,1.4071 -4.76901,2.82088 -7.14819,4.24048 -5.24808,3.12861 -10.53182,6.19604 -15.81201,9.27002 l -2.9956,1.75049 c -7.23182,4.22462 -14.49641,8.38895 -21.77491,12.53247 -6.51879,3.71654 -13.0034,7.48916 -19.47949,11.27954 -56.81609,35.0473 -113.55407,67.43767 -161.625,93.375 -7.87123,4.31317 -15.62327,8.81603 -23.36792,13.35205 -7.46429,4.37126 -14.94818,8.707 -22.44458,13.02295 -8.45368,4.86847 -16.89119,9.76327 -25.3125,14.6875 -8.22753,4.81011 -16.48419,9.56503 -24.76611,14.28076 -7.56147,4.3117 -15.08009,8.69491 -22.59326,13.09009 -5.43951,3.17992 -10.88653,6.34594 -16.34766,9.48852 l -1.77165,1.01983 c -2.8258,1.62614 -5.6527,3.25031 -8.48104,4.87202 -2.91566,1.67635 -5.82309,3.366 -8.72778,5.06128 l -2.45312,1.40186 -2.17188,1.28173 -1.85156,1.07593 C 208.51165,394.39765 207.9341,395.55115 207,398 c -0.18904,2.65327 -0.26834,5.19999 -0.25168,7.85242 l -0.009,2.42524 c -0.007,2.69854 -3.4e-4,5.39685 0.007,8.09539 -0.002,1.94751 -0.005,3.89501 -0.009,5.84252 -0.008,5.36481 -0.004,10.72954 0.002,16.09435 0.005,5.78057 -0.002,11.56112 -0.008,17.34169 -0.009,11.32935 -0.007,22.65867 -0.001,33.98802 0.005,9.20468 0.005,18.40935 0.003,27.61403 l -9.3e-4,3.96447 c -6.4e-4,2.65743 -0.001,5.31487 -0.002,7.9723 -0.006,24.22828 2.2e-4,48.45655 0.0107,72.68482 0.009,22.12753 0.009,44.25503 -9.2e-4,66.38256 -0.0107,24.84833 -0.0149,49.69664 -0.009,74.54496 6.4e-4,2.64786 0.001,5.29571 0.002,7.94357 l 9.3e-4,3.94823 c 0.002,9.19744 -0.001,18.39486 -0.006,27.5923 -0.006,11.20311 -0.004,22.4062 0.007,33.60932 0.005,5.71989 0.007,11.43974 7e-4,17.15963 -0.006,5.23061 -0.003,10.46113 0.008,15.69173 0.002,1.89765 0.001,3.79531 -0.004,5.69296 -0.006,2.56913 1.1e-4,5.13795 0.009,7.70707 l -0.0142,2.2594 c 0.0269,3.67261 0.11213,6.53726 2.26587,9.59302 2.64547,1.95449 2.64547,1.95449 6,3.8125 l 1.95728,1.13989 c 2.3416,1.35978 4.69231,2.70311 7.04272,4.04761 1.97838,1.14234 3.95621,2.28563 5.93359,3.42969 4.42799,2.55992 8.85948,5.11368 13.29297,7.66406 6.37713,3.67218 12.73391,7.37837 19.08594,11.09375 8.18262,4.78301 16.39062,9.51804 24.62549,14.21045 10.26717,5.85238 20.4978,11.76796 30.73144,17.67871 4.36326,2.5197 8.72759,5.03754 13.09204,7.55518 2.16105,1.24661 4.32202,2.49335 6.48291,3.74023 5.44095,3.13949 10.88268,6.2776 16.32593,9.41309 11.48418,6.61707 22.95166,13.26118 34.39551,19.94775 10.55301,6.16198 21.14079,12.26327 31.72998,18.36279 3.33034,1.91937 6.65929,3.84112 9.98779,5.7637 9.96784,5.7567 19.94027,11.5044 29.94141,17.2031 7.33983,4.1831 14.64604,8.4207 21.9375,12.6875 8.78141,5.1385 17.59764,10.213 26.4375,15.25 9.71983,5.539 19.4065,11.1315 29.0625,16.7813 7.2965,4.2675 14.61254,8.5002 21.9375,12.7187 7.47712,4.307 14.94706,8.6255 22.39893,12.9761 2.00394,1.1699 4.0088,2.3382 6.01464,3.5049 4.71979,2.7472 9.42349,5.5159 14.09815,8.3393 l 2.62134,1.5654 c 1.6085,0.9613 3.21107,1.9327 4.80615,2.9161 4.14414,2.4611 7.13322,4.1787 12.06079,3.1982 3.27373,-1.4692 6.30559,-3.2723 9.375,-5.125 l 2.77661,-1.6316 c 1.95696,-1.1509 3.91074,-2.3072 5.86157,-3.4685 3.89046,-2.3119 7.80137,-4.5878 11.71289,-6.8638 3.01916,-1.7572 6.03535,-3.5194 9.05127,-5.2822 16.14034,-9.4226 32.35655,-18.7131 48.59146,-27.9715 7.54946,-4.3066 15.07278,-8.6525 22.55112,-13.0815 5.35024,-3.163 10.74134,-6.2509 16.14258,-9.3259 7.67411,-4.369 15.3153,-8.791 22.9375,-13.25 8.32728,-4.8709 16.68245,-9.6883 25.06641,-14.4609 6.67017,-3.8029 13.30605,-7.6625 19.93359,-11.5391 7.47743,-4.37377 14.97165,-8.71445 22.5,-13 7.3824,-4.20256 14.73119,-8.45897 22.0625,-12.75 8.78135,-5.13863 17.59756,-10.21312 26.4375,-15.25 9.66969,-5.5097 19.30285,-11.07791 28.90649,-16.70215 8.41838,-4.92231 16.88353,-9.75996 25.35621,-14.58789 7.416,-4.22684 14.80709,-8.48969 22.14917,-12.84375 6.81965,-4.03051 13.706,-7.94383 20.58813,-11.86621 9.76768,-5.56908 19.52723,-11.14847 29.18013,-16.91504 1.2411,-0.7399 2.4844,-1.47607 3.7295,-2.20898 1.8267,-1.07563 3.6468,-2.16172 5.4654,-3.25098 l 3.0859,-1.83594 c 2.6484,-1.86607 3.9339,-2.99183 5.5391,-5.78906 0.2889,-2.69475 0.4046,-5.15618 0.3803,-7.84962 l 0.014,-2.42434 c 0.012,-2.69761 0,-5.39473 -0.01,-8.09236 0,-1.9468 0.01,-3.89359 0.016,-5.84038 0.014,-5.3629 0.01,-10.72565 0,-16.08856 -0.01,-5.77855 0.01,-11.55707 0.018,-17.33561 0.017,-11.32568 0.018,-22.65131 0.013,-33.977 0,-9.20229 0,-18.40456 0,-27.60685 v -3.96359 c 0,-2.65687 0,-5.31374 0.01,-7.97061 0.01,-17.84801 0.014,-35.69601 0.01,-53.54402 l -9e-4,-2.11582 c 0,-5.67039 0,-11.34077 -0.01,-17.01116 -0.01,-22.12085 0,-44.24162 0.022,-66.36245 0.026,-24.84212 0.039,-49.68419 0.032,-74.52631 0,-13.15751 -10e-4,-26.31496 0.016,-39.47246 0.015,-11.20055 0.015,-22.401 0,-33.60155 -0.01,-5.71804 -0.011,-11.43589 0.01,-17.15392 0.014,-5.23014 0.01,-10.45992 -0.01,-15.69004 0,-1.89632 -8e-4,-3.79267 0.01,-5.68897 0.013,-2.57007 0,-5.1389 -0.016,-7.70892 l 0.029,-2.25143 c -0.069,-4.85711 -1.0995,-7.30149 -4.5298,-10.72403 -2.0848,-1.55362 -2.0848,-1.55362 -4.3868,-2.76172 l -2.5664,-1.43555 -2.7343,-1.49023 c -1.9107,-1.06543 -3.8209,-2.13185 -5.7305,-3.19922 l -2.8726,-1.59521 c -3.7722,-2.11351 -7.493,-4.3085 -11.20943,-6.51807 -6.29874,-3.72838 -12.63929,-7.37844 -19,-11 -6.36074,-3.62158 -12.70031,-7.27319 -19,-11 -6.15549,-3.64068 -12.34754,-7.21182 -18.5625,-10.75 -7.52817,-4.28604 -15.02395,-8.62371 -22.5,-13 -8.78133,-5.13869 -17.59764,-10.21298 -26.4375,-15.25 -9.72125,-5.53985 -19.40895,-11.13375 -29.06689,-16.78345 -10.51659,-6.14991 -21.07225,-12.23147 -31.62891,-18.31225 -3.33034,-1.91937 -6.65929,-3.84112 -9.98779,-5.76368 C 810.34857,268.38387 800.37614,262.63624 790.375,256.9375 783.03517,252.75441 775.72896,248.51679 768.4375,244.25 759.65609,239.11146 750.83986,234.03702 742,229 c -9.71754,-5.53773 -19.40141,-11.12972 -29.05591,-16.77686 -15.1378,-8.85165 -30.33402,-17.60255 -45.56909,-26.28564 -9.60159,-5.47322 -19.15077,-11.03463 -28.69141,-16.61328 l -2.80517,-1.62744 c -2.03203,-1.19785 -4.04728,-2.42437 -6.04981,-3.6709 l -3.16845,-1.94385 -2.85132,-1.78589 c -5.50112,-2.5385 -9.19944,-1.50972 -14.23853,1.49292 z"
     fill="#fefefe"
     id="path276"
     style="display:inline" />
</svg>
