<?xml version="1.0" encoding="UTF-8" standalone="no"?>
<svg
   version="1.1"
   width="1268"
   height="1280"
   id="svg209"
   xmlns="http://www.w3.org/2000/svg"
   xmlns:svg="http://www.w3.org/2000/svg">
  <defs
     id="defs209" />
  <path
     d="m 452.88954,292.82736 c 30.84225,-10.6823 47.72615,-6.52944 60.15455,-1.4582 20.16761,9.13521 37.10539,21.95563 45.34322,42.55958 6.20875,17.44623 7.21093,38.73336 -0.84283,55.71195 -9.2434,16.75191 -24.74591,30.3449 -43.48768,36.39568 -8.92826,2.00054 -16.19705,0.0502 -23.93913,-4.54946 -8.67227,-6.0057 -15.62222,-15.09269 -18.24182,-25.17368 -1.51494,-8.92084 0.12376,-16.10163 5.57316,-23.50555 5.02016,-5.98859 11.18722,-9.67153 18.09482,-13.28506 2.15033,-1.168 4.0504,-2.3627 5.96844,-3.85124 -0.24374,-4.26231 -0.24374,-4.26231 -2.82251,-7.58244 -4.02536,-2.40993 -7.62055,-2.61237 -12.23092,-2.12308 -10.20814,2.70371 -17.18641,8.27936 -22.58013,16.98465 -7.55781,14.01578 -10.03062,29.52552 -5.28569,44.75216 4.60823,12.38105 11.52487,22.32684 23.9914,28.15612 2.10395,0.86785 4.21421,1.60813 6.38333,2.30948 l 2.17243,0.73613 c 17.37726,5.08188 34.09254,0.53849 49.67826,-7.20648 6.31586,-3.32755 12.52126,-6.84237 18.73884,-10.33741 5.14683,-2.88373 10.35735,-5.65101 15.57645,-8.40995 15.43407,-8.16511 30.48579,-16.78815 45.27567,-26.00578 6.01999,-3.75085 12.08027,-7.40168 18.25509,-10.90824 1.93373,-1.10228 3.86019,-2.21597 5.78674,-3.32996 73.25534,-42.26999 73.25534,-42.26999 110.46039,-33.21107 25.31295,6.73617 51.17894,23.03795 64.46177,45.17986 10.90244,18.95942 15.34528,39.98892 9.4039,61.28384 -7.06064,23.14619 -19.21267,39.73967 -36.70253,56.8114 l -2.17507,2.12842 c -4.95741,4.75978 -10.07532,8.97654 -15.95263,12.63956 -2.62208,1.71178 -3.85909,2.67127 -4.67151,5.68031 -0.16802,3.55703 0.58611,6.33714 1.77407,9.64766 l 0.6592,1.93218 c 0.73122,2.13379 1.48002,4.26142 2.22866,6.38955 0.52888,1.53342 1.05658,3.06723 1.58317,4.60139 1.44933,4.21283 2.91367,8.42067 4.38068,12.62777 2.60438,7.48042 5.18222,14.96949 7.76557,22.45671 0.67771,1.96353 1.35586,3.92693 2.03446,5.89017 6.06946,17.5611 11.94493,35.1768 17.74713,52.82187 2.26767,6.88878 4.55852,13.77022 6.85686,20.64949 l 0.54425,1.62906 c 0.91194,2.7294 1.82413,5.45872 2.73642,8.18801 5.4257,16.233 10.83245,32.47121 16.12495,48.74538 l 0.53771,1.65311 c 0.34393,1.06027 0.68652,2.12096 1.02762,3.1821 0.95842,2.97556 1.94976,5.93776 2.97227,8.89335 l 0.70402,2.06776 c 0.44817,1.31487 0.90384,2.62741 1.36854,3.93691 1.38786,4.10635 1.87976,7.50648 1.56584,11.83104 -1.13358,1.99038 -1.13358,1.99038 -2.66571,3.53846 l -1.49947,1.58599 c -4.4479,3.54445 -9.20484,3.21166 -14.7006,3.20674 l -2.58978,0.0105 c -1.80442,0.004 -3.60886,0.004 -5.41328,0.002 -2.75495,-0.003 -5.50914,0.0164 -8.264,0.0369 -1.75589,0.002 -3.51179,0.003 -5.2677,0.002 l -2.48717,0.0226 c -6.14533,-0.0401 -9.94952,-1.08167 -14.421,-5.32594 -4.14685,-4.84941 -5.68202,-10.8398 -7.57,-16.74573 -0.4265,-1.29048 -0.85477,-2.58044 -1.28472,-3.86988 -0.90826,-2.72928 -1.80836,-5.4609 -2.70301,-8.19439 -2.03851,-6.20812 -4.17366,-12.38525 -6.29823,-18.5662 -1.20903,-3.52226 -2.41019,-7.04702 -3.61142,-10.57177 l -0.73258,-2.14912 c -0.74672,-2.19086 -1.49326,-4.38175 -2.2398,-6.57265 l -0.77553,-2.27533 c -6.0512,-17.75447 -12.08819,-35.51141 -17.93671,-53.32936 -5.69927,-17.36184 -11.55733,-34.67235 -17.43827,-51.97729 -0.74749,-2.20066 -1.49397,-4.40162 -2.24018,-6.60269 -1.17648,-3.46964 -2.35568,-6.9384 -3.53704,-10.40649 -0.44007,-1.29309 -0.87929,-2.58641 -1.31764,-3.88004 -0.60523,-1.78538 -1.21371,-3.56972 -1.82304,-5.3538 l -1.03697,-3.04826 c -0.74936,-2.03436 -1.54528,-3.88536 -2.60918,-5.77778 -3.87194,1.14408 -5.72527,2.97904 -8.35525,5.90719 -0.81243,0.88647 -1.62712,1.77099 -2.44382,2.65375 l -1.28142,1.38601 c -2.12226,2.24602 -4.34348,4.39142 -6.57745,6.533 l -1.38422,1.32824 c -0.95151,0.91115 -1.90378,1.82156 -2.85676,2.73128 -1.52226,1.45399 -3.04083,2.91149 -4.55848,4.36997 -4.30704,4.13854 -8.61785,8.27339 -12.93702,12.40009 -2.66223,2.54408 -5.3182,5.09416 -7.97036,7.64808 -1.00255,0.96312 -2.00743,1.92401 -3.01474,2.88248 -1.40802,1.34011 -2.80792,2.68774 -4.20636,4.03719 l -1.23767,1.1667 c -4.60162,4.47603 -8.01721,8.88833 -8.12551,15.37032 l 0.0305,1.96762 -0.0175,2.14224 c -0.0144,2.35489 8.5e-4,4.7087 0.0161,7.06357 -0.004,1.69455 -0.0106,3.38911 -0.0184,5.08365 -0.013,3.64445 -0.0128,7.2886 -0.003,10.93306 0.0164,5.7775 0.003,11.55476 -0.0128,17.33224 -0.0228,9.15432 -0.0256,18.30852 -0.0203,27.46285 0.009,16.35031 -0.0116,32.70059 -0.045,49.05086 -0.0109,5.727 -0.012,11.45389 -0.005,17.18089 0.003,3.58765 -5.9e-4,7.17526 -0.005,10.7629 -8.4e-4,1.64532 8.3e-4,3.29065 0.005,4.93598 0.10495,35.3231 -7.45875,65.19231 -32.82354,91.48156 -0.92731,1.04146 -1.85089,2.08604 -2.77025,3.13407 -20.51065,22.54708 -49.08648,39.61909 -80.6545,42.05056 -34.89319,2.00316 -67.40425,-6.74053 -93.9757,-29.31207 -1.36613,-1.23956 -2.72489,-2.48676 -4.07696,-3.74067 l -2.30267,-2.04409 c -21.28354,-19.29122 -35.58924,-45.45377 -40.3476,-73.17464 l -0.48348,-2.64121 c -2.22795,-19.07268 0.6027,-37.7691 6.12851,-56.06263 l 0.47734,-1.5864 c 4.60509,-15.24068 9.96842,-30.24661 15.26151,-45.27331 1.41083,-4.0093 2.81514,-8.02074 4.21968,-12.03212 0.56252,-1.60631 1.12504,-3.21262 1.68759,-4.81892 l 0.83703,-2.39009 c 0.82595,-2.35757 1.65269,-4.71487 2.47964,-7.0721 4.05653,-11.56489 8.06856,-23.14324 12.04355,-34.73459 3.9663,-11.55391 7.99488,-23.08507 12.08504,-34.59849 3.38873,-9.54497 6.71371,-19.10971 10.00508,-28.68642 l 0.60536,-1.76062 c 2.00883,-5.84267 4.01551,-11.68601 6.01461,-17.53181 0.93834,-2.74248 1.8792,-5.48414 2.8211,-8.22549 l 0.55371,-1.61286 c 2.02556,-5.89058 4.09628,-11.762 6.269,-17.60348 l 0.58892,-1.58369 c 0.92245,-2.47476 1.85266,-4.94653 2.79167,-7.41547 l 0.99447,-2.64085 0.87505,-2.2959 c 0.76717,-2.36198 1.27047,-4.60905 1.55627,-7.0694 -1.59506,-2.34946 -3.97965,-3.22645 -6.57935,-4.35358 l -2.43743,-1.07893 -2.5869,-1.13894 c -28.1888,-12.75662 -52.78327,-36.95167 -64.11101,-65.24686 -10.43951,-29.76353 -8.44631,-62.0903 5.57644,-90.36682 5.36265,-10.39988 12.05494,-19.05491 20.79647,-27.07246 7.77766,-7.6973 18.27519,-12.29746 24.97179,-15.12522 z m 248.49879,113.84853 c -0.98978,0.54018 -1.9799,1.07975 -2.97035,1.61876 -2.91816,1.59106 -5.82844,3.19513 -8.73788,4.80104 l -2.4354,1.33996 c -3.58903,1.97489 -7.17323,3.95757 -10.75268,5.94865 -3.17307,1.76103 -6.3616,3.49298 -9.55866,5.21292 l -2.6355,1.4229 c -1.67403,0.9027 -3.35032,1.80152 -5.02923,2.69571 -7.94785,4.05802 -7.94785,4.05802 -13.0762,10.87882 -0.23125,1.73473 -0.23125,1.73473 -0.1694,3.58236 l 0.0144,2.15817 0.042,2.34819 0.024,2.48754 c 0.0282,2.71339 0.0685,5.42648 0.10873,8.13971 0.0219,1.88124 0.043,3.76248 0.0634,5.64373 0.0556,4.95169 0.12172,9.90318 0.1898,14.85472 0.0677,5.05258 0.1257,10.10527 0.18452,15.15795 0.11686,9.91416 0.24452,19.82816 0.37896,29.74211 9.29036,-1.96442 18.26224,-14.35898 24.75276,-20.69205 2.18163,-2.12787 4.36675,-4.25238 6.55289,-6.37592 6.20984,-6.03259 12.41609,-12.06859 18.61374,-18.11288 3.8054,-3.71075 7.61695,-7.41549 11.43246,-11.1165 1.44568,-1.40461 2.88903,-2.81145 4.32993,-4.22062 2.01661,-1.97181 4.04098,-3.93588 6.0672,-5.89844 l 1.77396,-1.74588 c 3.72235,-3.58556 7.73943,-7.44237 12.61611,-9.48184 3.73195,0.34374 5.69198,1.49775 8.36302,4.04396 1.37248,2.01169 2.49629,4.11255 3.60654,6.26815 l 0.9098,1.7092 c 0.73333,1.38058 1.45491,2.76701 2.17406,4.15454 5.81508,-0.59145 8.98839,-4.7422 12.54453,-8.89672 6.7914,-10.24825 8.00634,-21.16912 5.75284,-32.98043 -2.15764,-7.65111 -5.98873,-15.49169 -13.27956,-19.59112 -7.13597,-3.58288 -13.84272,-5.29664 -21.90065,-5.4088 l -1.98213,-0.0473 c -10.21895,0.19525 -19.32527,5.58363 -27.96791,10.35932 z m -125.17408,70.82626 -2.72616,1.37115 -2.82413,1.4533 -2.79476,1.39644 c -5.18576,2.63485 -9.97477,5.41796 -14.50624,9.01678 1.16605,3.50768 2.84446,5.41676 5.59277,7.93629 2.47995,2.32342 4.89019,4.61918 7.10857,7.17803 3.0583,3.44117 6.32792,6.67478 9.61746,9.90771 l 1.65851,1.6561 1.59195,1.55064 1.42658,1.40255 c 1.59197,1.37634 1.59197,1.37634 4.78362,1.91161 v -46.91001 c -4.15251,0 -5.406,0.35145 -8.92817,2.12941 z m -51.28554,68.2356 c -3.37531,6.82951 -5.73545,13.94934 -8.17027,21.12656 -0.46674,1.366 -0.93392,2.73188 -1.4015,4.09762 -0.98784,2.8865 -1.97385,5.77357 -2.95847,8.66109 -2.55628,7.49278 -5.13246,14.97918 -7.71085,22.46486 l -0.76432,2.21915 c -8.9397,25.94306 -18.69383,51.48678 -29.07466,76.92252 -4.09939,10.04734 -8.04274,20.14066 -11.80624,30.31078 l -0.82363,2.18588 c -11.39497,30.38278 -18.90924,68.38642 -4.5039,99.06531 5.01467,10.04678 11.91589,17.09472 22.05358,22.49415 l 1.94047,1.09945 c 16.38162,8.70012 38.60716,10.73778 56.55489,6.15442 l 2.55463,-0.78352 2.76372,-0.83407 c 14.60464,-4.91856 27.12818,-15.02246 34.5105,-28.20034 3.46296,-7.15934 5.7126,-14.27248 6.76813,-22.10613 l 0.32028,-2.34411 c 1.03479,-8.14274 1.15163,-16.2163 1.12228,-24.40947 0.003,-1.63631 0.007,-3.27264 0.0134,-4.90895 0.0113,-4.38269 0.006,-8.76525 -8.4e-4,-13.14795 -0.006,-4.61427 -4.4e-4,-9.22854 0.003,-13.84281 0.004,-7.73485 -0.002,-15.46962 -0.0134,-23.20445 -0.0138,-8.92133 -0.009,-17.84253 0.004,-26.76385 0.0114,-7.69551 0.013,-15.39097 0.006,-23.08647 -0.004,-4.5811 -0.004,-9.16212 0.004,-13.74322 0.007,-4.30067 0.003,-8.60117 -0.0123,-12.90181 -0.003,-1.57145 -0.003,-3.1429 0.003,-4.71434 0.047,-14.62193 -1.67949,-25.42981 -12.34161,-36.47999 l -1.32166,-1.37671 c -5.12251,-5.29814 -10.44977,-10.39622 -15.78341,-15.49419 -11.22902,-10.73476 -11.22902,-10.73476 -15.6388,-15.746 -2.0471,-2.28779 -4.25127,-4.41632 -6.47093,-6.54636 l -1.30671,-1.27322 c -3.61838,-3.74739 -3.61838,-3.74739 -8.51982,-4.89383 z"
     fill="#fefefe"
     id="path1"
     style="display:inline;stroke-width:0.999998" />
  <path
     d="m 633.4375,33.5 2.37695,1.35083 c 5.77623,3.295815 11.51247,6.662138 17.23511,10.050049 6.53986,3.871574 13.11674,7.677652 19.70044,11.474121 l 3.39917,1.960205 c 5.88484,3.390047 11.77715,6.766428 17.67944,10.125977 9.85782,5.611032 19.64892,11.33042 29.4253,17.081634 9.06814,5.331818 18.18567,10.564331 27.35717,15.716954 11.88874,6.68943 23.64107,13.61257 35.40943,20.51074 10.82514,6.34239 21.66733,12.64435 32.60449,18.79199 8.31977,4.67643 16.55668,9.47462 24.75879,14.354 7.45116,4.42141 14.96199,8.73442 22.49121,13.021 9.88118,5.6258 19.72538,11.31062 29.53857,17.05444 6.34065,3.7078 12.70313,7.37425 19.08643,11.00806 7.3824,4.20257 14.73118,8.45897 22.0625,12.75 8.78135,5.13863 17.59755,10.21314 26.4375,15.25 9.83897,5.60609 19.6409,11.27194 29.41406,16.99219 6.34045,3.70776 12.70274,7.37408 19.08594,11.00781 7.3824,4.20257 14.7312,8.45897 22.0625,12.75 8.7814,5.13863 17.5976,10.21298 26.4375,15.25 9.7104,5.53368 19.3892,11.11825 29.0339,16.76587 5.2726,3.08566 10.5545,6.15394 15.8528,9.19507 l 1.7554,1.00847 c 2.7876,1.60128 5.5766,3.20009 8.3682,4.79451 23.3236,13.38949 23.3236,13.38949 27.7397,19.79858 l 1.2344,1.75391 c 1.7822,2.95435 2.1409,5.47342 2.1433,8.83764 l 0.01,2.58211 -0.01,2.8433 0.01,3.02785 c 0.01,3.38101 0,6.76198 0,10.143 l 0.01,7.30607 c 0.01,6.01232 0.01,12.02463 0.01,18.03695 9e-4,7.19878 0.01,14.39756 0.014,21.59633 0.016,17.40068 0.022,34.80136 0.027,52.20204 0,8.22885 0.01,16.4577 0.01,24.68655 0.013,28.15865 0.024,56.3173 0.027,84.47595 l 6e-4,5.30452 7e-4,5.31746 c 4e-4,3.55602 9e-4,7.11204 10e-4,10.66806 l 3e-4,2.67178 c 0,28.5956 0.019,57.19118 0.043,85.78678 0.025,30.2207 0.038,60.4414 0.04,90.66212 2e-4,3.31606 4e-4,6.63212 6e-4,9.94819 l 2e-4,2.47433 c 0,13.15282 0.012,26.3056 0.027,39.45841 0.014,13.21485 0.018,26.42967 0.01,39.64453 0,7.85481 -6e-4,15.70952 0.015,23.56432 0.011,5.85946 0.01,11.71884 -0.01,17.5783 0,2.37485 10e-4,4.74972 0.01,7.12455 0.011,3.22007 0,6.43958 -0.01,9.65963 l 0.023,2.81491 c -0.062,7.66213 -1.7273,13.17258 -7.3012,18.74057 -5.2897,5.04292 -11.2133,8.47342 -17.5937,11.96484 -1.1697,0.65474 -2.3385,1.31109 -3.5064,1.96899 -2.2984,1.29354 -4.6003,2.58019 -6.9048,3.86304 -3.8588,2.1618 -7.6656,4.40206 -11.4638,6.66797 -7.3492,4.35238 -14.767,8.58339 -22.1875,12.8125 -9.8666,5.62317 -19.7002,11.29813 -29.5027,17.03247 -12.7073,7.43093 -25.4699,14.76603 -38.2259,22.11303 -11.58576,6.6741 -23.1644,13.3593 -34.70894,20.1045 -18.06549,10.5533 -36.20153,20.9822 -54.37585,31.3466 -7.38306,4.2117 -14.74026,8.4617 -22.05188,12.7962 -6.67008,3.9415 -13.40358,7.7715 -20.13477,11.6072 -9.86661,5.623 -19.70019,11.2981 -29.50269,17.0325 -10.51718,6.1502 -21.07339,12.2321 -31.63061,18.3132 -3.33034,1.9194 -6.65929,3.8411 -9.98779,5.7637 -9.86276,5.696 -19.73017,11.3823 -29.62891,17.0156 -9.0267,5.139 -17.98205,10.3968 -26.93436,15.6638 -9.23583,5.4311 -18.52377,10.7586 -27.8652,16.0066 -6.06473,3.411 -12.07792,6.8963 -18.0625,10.4456 -6.75394,3.9931 -13.5708,7.8752 -20.38794,11.759 -7.95186,4.5303 -15.89082,9.0793 -23.78857,13.7036 -2.92925,1.7151 -5.863,3.4222 -8.79737,5.1284 -4.06425,2.365 -8.10579,4.7649 -12.14062,7.1797 -2.04908,1.2051 -4.09855,2.4096 -6.14844,3.6133 l -2.81567,1.7156 c -5.69244,3.3084 -10.13779,5.0336 -16.74683,3.9094 -2.76562,-0.8906 -2.76562,-0.8906 -5.25,-2.25 l -3.09375,-1.6719 c -1.21976,-0.6909 -2.43841,-1.3838 -3.65625,-2.0781 l -2.20312,-1.2363 c -11.24598,-6.3121 -22.37198,-12.8342 -33.50538,-19.3421 -11.73476,-6.8576 -23.51382,-13.6381 -35.2915,-20.4216 -12.64303,-7.2819 -25.28132,-14.5705 -37.875,-21.9375 -9.2683,-5.4207 -18.57964,-10.7631 -27.90842,-16.0787 -9.24381,-5.2684 -18.4481,-10.6014 -27.63064,-15.976 -7.19086,-4.2051 -14.41478,-8.3487 -21.65406,-12.4697 -7.6957,-4.3876 -15.34399,-8.8545 -22.99047,-13.3272 -6.45958,-3.7743 -12.93966,-7.5098 -19.44141,-11.2109 -7.52835,-4.2855 -15.0225,-8.6263 -22.5,-13 -10.95809,-6.4078 -21.96771,-12.721 -33,-19 -11.93996,-6.7955 -23.84649,-13.643 -35.7063,-20.5776 -7.41602,-4.3341 -14.85031,-8.6355 -22.2937,-12.9224 -8.34802,-4.8085 -16.68243,-9.6391 -25,-14.5 -11.54722,-6.7471 -23.12902,-13.4334 -34.71777,-20.1089 -5.42883,-3.1279 -10.85542,-6.25968 -16.28223,-9.3911 -2.16666,-1.25002 -4.33332,-2.50002 -6.5,-3.75 l -13,-7.5 -3.2522,-1.87622 c -2.15939,-1.24584 -4.31874,-2.49177 -6.47802,-3.73779 -6.65853,-3.84214 -13.31914,-7.68062 -19.98121,-11.51661 -3.27418,-1.88755 -6.54524,-3.78043 -9.81591,-5.67407 -3.68739,-2.13372 -7.38536,-4.24505 -11.10157,-6.32812 C 94.39355,941.11618 94.39355,941.11618 91.00076,930 c -0.41807,-3.37166 -0.40488,-6.70869 -0.38032,-10.10288 l -0.0141,-3.05208 c -0.012,-3.38423 -0.003,-6.76806 0.007,-10.15229 -0.004,-2.44706 -0.01,-4.89412 -0.0163,-7.34118 -0.0115,-5.32518 -0.0136,-10.65024 -0.007,-15.97542 0.009,-7.91868 0.001,-15.83729 -0.0103,-23.75596 -0.0197,-14.1424 -0.022,-28.28477 -0.0168,-42.42718 0.005,-12.37618 0.004,-24.75234 -0.002,-37.12851 l -0.002,-4.97824 -0.003,-7.50151 c -0.0107,-23.24993 -0.0154,-46.49985 -0.008,-69.74978 l 9e-4,-2.65636 c 0.002,-7.11884 0.005,-14.23767 0.008,-21.35651 0.0101,-27.77389 0.002,-55.54773 -0.0215,-83.32161 -0.0261,-31.19668 -0.0389,-62.39333 -0.0318,-93.59002 7.1e-4,-3.32499 0.001,-6.64998 0.002,-9.97497 l 5.1e-4,-2.48094 c 0.002,-12.36909 -0.006,-24.73814 -0.0188,-37.10722 -0.0149,-14.06273 -0.0158,-28.12538 0.002,-42.18811 0.01,-7.87263 0.008,-15.74509 -0.009,-23.61771 -0.0117,-5.87256 -0.003,-11.74498 0.0148,-17.61753 0.004,-2.38012 7.7e-4,-4.76025 -0.01,-7.14035 -0.0131,-3.22726 -0.002,-6.45354 0.016,-9.68076 l -0.0292,-2.82117 c 0.0838,-7.42054 2.28338,-12.44699 7.59232,-17.80515 4.44801,-4.23789 9.60539,-7.11319 14.9375,-10.10156 l 3.18896,-1.82397 c 3.26356,-1.86263 6.53592,-3.70883 9.81104,-5.55103 1.97147,-1.11307 3.94283,-2.22635 5.91406,-3.33984 2.85821,-1.61359 5.717,-3.22607 8.57813,-4.83448 7.47301,-4.20995 14.85723,-8.55812 22.22778,-12.94433 7.6156,-4.51936 15.31351,-8.88231 23.03272,-13.22168 6.23003,-3.50661 12.41388,-7.07962 18.56518,-10.72217 9.71347,-5.74465 19.50777,-11.35047 29.28711,-16.98193 5.46672,-3.14889 10.9308,-6.30235 16.39502,-9.45557 6.52232,-3.76365 13.04514,-7.52645 19.57031,-11.28516 10.49201,-6.04539 20.97448,-12.10599 31.42969,-18.21484 17.166,-10.02898 34.39198,-19.95274 51.66528,-29.79565 5.26269,-3.00428 10.4959,-6.05368 15.70972,-9.14185 6.65869,-3.94373 13.38082,-7.767 20.125,-11.5625 7.31518,-4.11773 14.59365,-8.28463 21.81665,-12.56177 6.34751,-3.75402 12.73146,-7.44351 19.12085,-11.12573 l 3.35034,-1.93091 c 3.40377,-1.96102 6.80792,-3.92138 10.21216,-5.88159 4.37551,-2.51995 8.75056,-5.04069 13.125,-7.5625 l 3.26782,-1.88379 c 7.17477,-4.13993 14.33221,-8.30863 21.48218,-12.49121 9.27,-5.421712 18.58332,-10.764549 27.91345,-16.081726 8.13725,-4.638526 16.25126,-9.314571 24.33655,-14.043274 18.66219,-10.914631 37.40326,-21.691295 56.18652,-32.395996 l 3.30567,-1.885254 3.20996,-1.828125 c 2.15874,-1.243816 4.30756,-2.50496 6.44726,-3.78125 l 3.1709,-1.890625 2.80518,-1.693359 C 618.00075,25.275219 624.56154,28.34434 633.4375,33.5 Z m -23.86719,128.28906 -3.12231,1.83277 -3.323,2.00317 c -1.15834,0.68529 -2.31745,1.36927 -3.4773,2.052 -2.38659,1.4071 -4.76901,2.82088 -7.14819,4.24048 -5.24808,3.12861 -10.53182,6.19604 -15.81201,9.27002 l -2.9956,1.75049 c -7.23182,4.22462 -14.49641,8.38895 -21.77491,12.53247 -6.51879,3.71654 -13.0034,7.48916 -19.47949,11.27954 -56.81609,35.0473 -113.55407,67.43767 -161.625,93.375 -7.87123,4.31317 -15.62327,8.81603 -23.36792,13.35205 -7.46429,4.37126 -14.94818,8.707 -22.44458,13.02295 -8.45368,4.86847 -16.89119,9.76327 -25.3125,14.6875 -8.22753,4.81011 -16.48419,9.56503 -24.76611,14.28076 -7.56147,4.3117 -15.08009,8.69491 -22.59326,13.09009 -5.43951,3.17992 -10.88653,6.34594 -16.34766,9.48852 l -1.77165,1.01983 c -2.8258,1.62614 -5.6527,3.25031 -8.48104,4.87202 -2.91566,1.67635 -5.82309,3.366 -8.72778,5.06128 l -2.45312,1.40186 -2.17188,1.28173 -1.85156,1.07593 C 208.51165,394.39765 207.9341,395.55115 207,398 c -0.18904,2.65327 -0.26834,5.19999 -0.25168,7.85242 l -0.009,2.42524 c -0.007,2.69854 -3.4e-4,5.39685 0.007,8.09539 -0.002,1.94751 -0.005,3.89501 -0.009,5.84252 -0.008,5.36481 -0.004,10.72954 0.002,16.09435 0.005,5.78057 -0.002,11.56112 -0.008,17.34169 -0.009,11.32935 -0.007,22.65867 -0.001,33.98802 0.005,9.20468 0.005,18.40935 0.003,27.61403 l -9.3e-4,3.96447 c -6.4e-4,2.65743 -0.001,5.31487 -0.002,7.9723 -0.006,24.22828 2.2e-4,48.45655 0.0107,72.68482 0.009,22.12753 0.009,44.25503 -9.2e-4,66.38256 -0.0107,24.84833 -0.0149,49.69664 -0.009,74.54496 6.4e-4,2.64786 0.001,5.29571 0.002,7.94357 l 9.3e-4,3.94823 c 0.002,9.19744 -0.001,18.39486 -0.006,27.5923 -0.006,11.20311 -0.004,22.4062 0.007,33.60932 0.005,5.71989 0.007,11.43974 7e-4,17.15963 -0.006,5.23061 -0.003,10.46113 0.008,15.69173 0.002,1.89765 0.001,3.79531 -0.004,5.69296 -0.006,2.56913 1.1e-4,5.13795 0.009,7.70707 l -0.0142,2.2594 c 0.0269,3.67261 0.11213,6.53726 2.26587,9.59302 2.64547,1.95449 2.64547,1.95449 6,3.8125 l 1.95728,1.13989 c 2.3416,1.35978 4.69231,2.70311 7.04272,4.04761 1.97838,1.14234 3.95621,2.28563 5.93359,3.42969 4.42799,2.55992 8.85948,5.11368 13.29297,7.66406 6.37713,3.67218 12.73391,7.37837 19.08594,11.09375 8.18262,4.78301 16.39062,9.51804 24.62549,14.21045 10.26717,5.85238 20.4978,11.76796 30.73144,17.67871 4.36326,2.5197 8.72759,5.03754 13.09204,7.55518 2.16105,1.24661 4.32202,2.49335 6.48291,3.74023 5.44095,3.13949 10.88268,6.2776 16.32593,9.41309 11.48418,6.61707 22.95166,13.26118 34.39551,19.94775 10.55301,6.16198 21.14079,12.26327 31.72998,18.36279 3.33034,1.91937 6.65929,3.84112 9.98779,5.7637 9.96784,5.7567 19.94027,11.5044 29.94141,17.2031 7.33983,4.1831 14.64604,8.4207 21.9375,12.6875 8.78141,5.1385 17.59764,10.213 26.4375,15.25 9.71983,5.539 19.4065,11.1315 29.0625,16.7813 7.2965,4.2675 14.61254,8.5002 21.9375,12.7187 7.47712,4.307 14.94706,8.6255 22.39893,12.9761 2.00394,1.1699 4.0088,2.3382 6.01464,3.5049 4.71979,2.7472 9.42349,5.5159 14.09815,8.3393 l 2.62134,1.5654 c 1.6085,0.9613 3.21107,1.9327 4.80615,2.9161 4.14414,2.4611 7.13322,4.1787 12.06079,3.1982 3.27373,-1.4692 6.30559,-3.2723 9.375,-5.125 l 2.77661,-1.6316 c 1.95696,-1.1509 3.91074,-2.3072 5.86157,-3.4685 3.89046,-2.3119 7.80137,-4.5878 11.71289,-6.8638 3.01916,-1.7572 6.03535,-3.5194 9.05127,-5.2822 16.14034,-9.4226 32.35655,-18.7131 48.59146,-27.9715 7.54946,-4.3066 15.07278,-8.6525 22.55112,-13.0815 5.35024,-3.163 10.74134,-6.2509 16.14258,-9.3259 7.67411,-4.369 15.3153,-8.791 22.9375,-13.25 8.32728,-4.8709 16.68245,-9.6883 25.06641,-14.4609 6.67017,-3.8029 13.30605,-7.6625 19.93359,-11.5391 7.47743,-4.37377 14.97165,-8.71445 22.5,-13 7.3824,-4.20256 14.73119,-8.45897 22.0625,-12.75 8.78135,-5.13863 17.59756,-10.21312 26.4375,-15.25 9.66969,-5.5097 19.30285,-11.07791 28.90649,-16.70215 8.41838,-4.92231 16.88353,-9.75996 25.35621,-14.58789 7.416,-4.22684 14.80709,-8.48969 22.14917,-12.84375 6.81965,-4.03051 13.706,-7.94383 20.58813,-11.86621 9.76768,-5.56908 19.52723,-11.14847 29.18013,-16.91504 1.2411,-0.7399 2.4844,-1.47607 3.7295,-2.20898 1.8267,-1.07563 3.6468,-2.16172 5.4654,-3.25098 l 3.0859,-1.83594 c 2.6484,-1.86607 3.9339,-2.99183 5.5391,-5.78906 0.2889,-2.69475 0.4046,-5.15618 0.3803,-7.84962 l 0.014,-2.42434 c 0.012,-2.69761 0,-5.39473 -0.01,-8.09236 0,-1.9468 0.01,-3.89359 0.016,-5.84038 0.014,-5.3629 0.01,-10.72565 0,-16.08856 -0.01,-5.77855 0.01,-11.55707 0.018,-17.33561 0.017,-11.32568 0.018,-22.65131 0.013,-33.977 0,-9.20229 0,-18.40456 0,-27.60685 v -3.96359 c 0,-2.65687 0,-5.31374 0.01,-7.97061 0.01,-17.84801 0.014,-35.69601 0.01,-53.54402 l -9e-4,-2.11582 c 0,-5.67039 0,-11.34077 -0.01,-17.01116 -0.01,-22.12085 0,-44.24162 0.022,-66.36245 0.026,-24.84212 0.039,-49.68419 0.032,-74.52631 0,-13.15751 -10e-4,-26.31496 0.016,-39.47246 0.015,-11.20055 0.015,-22.401 0,-33.60155 -0.01,-5.71804 -0.011,-11.43589 0.01,-17.15392 0.014,-5.23014 0.01,-10.45992 -0.01,-15.69004 0,-1.89632 -8e-4,-3.79267 0.01,-5.68897 0.013,-2.57007 0,-5.1389 -0.016,-7.70892 l 0.029,-2.25143 c -0.069,-4.85711 -1.0995,-7.30149 -4.5298,-10.72403 -2.0848,-1.55362 -2.0848,-1.55362 -4.3868,-2.76172 l -2.5664,-1.43555 -2.7343,-1.49023 c -1.9107,-1.06543 -3.8209,-2.13185 -5.7305,-3.19922 l -2.8726,-1.59521 c -3.7722,-2.11351 -7.493,-4.3085 -11.20943,-6.51807 -6.29874,-3.72838 -12.63929,-7.37844 -19,-11 -6.36074,-3.62158 -12.70031,-7.27319 -19,-11 -6.15549,-3.64068 -12.34754,-7.21182 -18.5625,-10.75 -7.52817,-4.28604 -15.02395,-8.62371 -22.5,-13 -8.78133,-5.13869 -17.59764,-10.21298 -26.4375,-15.25 -9.72125,-5.53985 -19.40895,-11.13375 -29.06689,-16.78345 -10.51659,-6.14991 -21.07225,-12.23147 -31.62891,-18.31225 -3.33034,-1.91937 -6.65929,-3.84112 -9.98779,-5.76368 C 810.34857,268.38387 800.37614,262.63624 790.375,256.9375 783.03517,252.75441 775.72896,248.51679 768.4375,244.25 759.65609,239.11146 750.83986,234.03702 742,229 c -9.71754,-5.53773 -19.40141,-11.12972 -29.05591,-16.77686 -15.1378,-8.85165 -30.33402,-17.60255 -45.56909,-26.28564 -9.60159,-5.47322 -19.15077,-11.03463 -28.69141,-16.61328 l -2.80517,-1.62744 c -2.03203,-1.19785 -4.04728,-2.42437 -6.04981,-3.6709 l -3.16845,-1.94385 -2.85132,-1.78589 c -5.50112,-2.5385 -9.19944,-1.50972 -14.23853,1.49292 z"
     fill="#fefefe"
     id="path276"
     style="display:inline" />
</svg>
