<?xml version="1.0" encoding="UTF-8" standalone="no"?>
<svg
   version="1.1"
   width="461"
   height="460"
   id="svg289"
   xml:space="preserve"
   xmlns="http://www.w3.org/2000/svg"
   xmlns:svg="http://www.w3.org/2000/svg"><defs
     id="defs289" /><path
     d="m 216.3125,92.6875 3.85083,0.0061 C 239.80728,92.903639 239.80728,92.903639 248,97 c -0.6845,5.13236 -2.4123,7.06495 -6.32471,10.28223 -8.72532,4.90243 -18.58039,7.38474 -28.00818,10.65454 C 114.85129,157.8744 185.87534,237.32779 193,236 c 6.55865,-0.53388 13.44011,-1.46074 17.3125,4.43753 -13.57681,9.13131 -22.20633,15.83008 -31.5625,25.68747 -2.00279,-4.3147 -2.71428,-8.32775 -1.875,-13.0625 1.2623,-10.57858 -4.98678,-12.27911 -10.375,-11.875 -16.60004,11.06118 -25.4145,29.76344 -29.5,48.8125 -0.40651,4.30249 -0.47826,8.55533 -0.4375,12.875 l 0.0251,3.45801 C 136.9523,324.53682 143.78749,340.45952 156,354 l 1.79297,2.07422 c 12.95404,14.05885 32.37237,22.13017 51.25,23.17578 18.05808,0.67132 36.23587,-3.12623 50.74219,-14.41797 9.99538,-9.42803 16.30536,-22.60344 17.41796,-36.33984 0.23599,-13.17584 -4.03459,-25.89888 -13.14062,-35.61328 -12.00007,-10.93188 -27.268,-14.37948 -43.125,-14.08594 -9.80227,0.5154 -17.93059,3.27901 -26.44556,7.95727 C 193.02151,287.55159 191.51311,288.28249 190,289 l -2,-1 c 8.66042,-12.73727 18.13424,-22.0128 33.65283,-25.63159 4.90129,-0.7693 9.83556,-0.6537 14.78467,-0.61841 l 3.27539,-0.0234 c 15.48308,0.0376 29.67004,4.73913 41.28711,15.27344 l 2.04297,1.73047 c 11.50981,10.4412 18.34187,26.72337 19.16015,42.08203 0.40229,21.49548 -5.89827,40.98728 -20.80859,56.8125 -18.34941,18.19974 -43.64784,25.5244 -69.01953,25.875 -30.90946,-0.12757 -58.28756,-12.52817 -81.375,-32.5 -1.08194,-0.85593 -2.16502,-1.71042 -3.25,-2.5625 -3.61639,-3.20544 -6.64451,-6.74414 -9.75,-10.4375 l -2.02344,-2.25781 C 103.89616,341.83013 95.24547,325.25147 89,308.00004 L 88.14941,305.6602 C 78.3892,278.02349 75.80953,246.85905 81,218.00004 l 0.37451,-2.19775 c 7.4352,-42.85377 37.66912,-101.32855 104.33252,-119.794478 10.20396,-2.52319 20.10665,-3.365288 30.60547,-3.320312 z"
     fill="#1669cd"
     id="path2" /><path
     d="m 297.125,71 c 15.50997,5.322596 29.22622,15.859356 39.5,28.5625 4.02735,4.70729 7.416,5.59434 13.38281,6.6875 10.2033,2.55749 17.79424,11.87514 23.01953,20.52734 C 381.28361,141.5014 391.78857,155.50303 392,173 c -11.86209,-0.15872 -40.4669,-1.44875 -76,-1 59.24556,8.36003 14.16587,2.59606 69,11 v 3 c -11.79962,11.1441 -41.54438,17.8384 -51.60327,19.84277 C 311.78907,209.69061 289.82646,210.90187 268,213 c 3.24948,5.87123 5.55456,9.43734 12.10156,11.34375 6.19252,1.96779 9.3761,8.52293 7.89844,12.65625 -6.95266,-3.19302 -13.10108,-3.36167 -19.70703,-4.80859 -7.00372,-3.00364 -11.96869,-10.14764 -16.16797,-16.31641 -2.25217,-3.04705 -2.64457,-3.27794 -6.125,-3.875 3.75685,9.36462 3.75685,9.36462 10.35937,16.52344 17.13782,7.53234 15.44568,13.14156 14.34774,16.24433 -12.60686,-4.09214 -23.10671,-3.36667 -24.625,-7.625 C 238.96355,225.04933 232.14905,219.66126 231,215 c -15.50797,1.04485 -13.5695,6.07217 -25.875,11.0625 -19.132,0.92301 -33.2674,-32.53069 -31.625,-51.1875 3.46226,-48.29836 82.91624,-47.70707 85.5,-73.875 8.91786,2.41023 16.62224,7.61524 24,13 -1.66077,-18.032166 -2.27656,-31.921747 -2,-44.8125 6.20172,-1.31961 10.96849,0.119651 16.125,1.8125 z"
     fill="#e67236"
     id="path3"
     style="display:inline" /><path
     d="m 248,97 c 6.10748,23.55408 -67.57271,7.25428 -86.02252,75.26516 C 133.3328,183.72303 89.82912,218.48203 96.12502,325 54.92751,258.49558 80.13458,125.25163 185.70703,96.007812 196.38281,93.367951 246.07576,82.858359 248,97 Z"
     fill="#18b3b4"
     id="path4"
     style="display:inline" /><path
     d="m 270.62196,105.69216 c 16.63394,30.56784 -4.76472,51.92337 25.53596,70.33404 -71.13315,1.53561 -81.10599,-7.21893 -121.19192,15.09039 -2.58402,-12.30053 -1.56399,-17.04546 -0.80607,-21.63429 48.33654,-21.02072 93.87773,-17.63408 96.46203,-63.79014 z"
     fill="#52a065"
     id="path5"
     style="display:inline" /><path
     d="m 336.625,99.5625 c 4.02735,4.70729 7.416,5.59434 13.38281,6.6875 18.91965,3.54913 37.94275,41.66108 40.24609,55.17548 C 376.14771,146.54213 351.06608,104.17242 325,124 300.07723,92.960617 288.35713,119.35244 286,79 c -3.96015,16.723601 -1.38096,43.35468 -0.47487,75.17678 -4.05888,-8.67605 -4.03063,-48.17771 -4.52513,-85.016469 9.5023,-2.839751 35.42685,5.232022 55.625,30.402189 z"
     fill="#fdb835"
     id="path8"
     style="display:inline" /><path
     d="m 259,101 c 3.09341,0.59776 9.98097,3.58764 11.61677,4.81694 -0.76671,48.42525 -69.56604,58.12693 -96.49177,63.71431 C 184.45954,124.54784 241.58585,133.38487 259,101 Z"
     fill="#5ad366"
     id="path9"
     style="display:inline" /><path
     d="m 261.125,176.0625 c -29.10995,6.7441 -52.29228,7.41201 -30.375,38.9375 -8.80476,1.85373 -16.64569,9.88597 -25.5887,11.07797 -15.43778,0.8716 -27.40027,-21.56266 -30.1613,-34.89047 12.8594,-18.34847 63.13259,-17.5032 86.125,-15.125 z"
     fill="#225E67"
     id="path10"
     style="display:inline;fill:#115273;fill-opacity:1" /><path
     d="m 338.42578,119.22656 c 12.50297,-0.31037 18.76958,6.88728 19.01172,19.71094 -0.43217,8.093 -7.61518,17.12172 -19.1875,16.1875 -9.5598,-0.37919 -17.20148,-5.98981 -17.48828,-16.61328 -0.19466,-11.17022 7.33795,-19.39805 17.66406,-19.28516 z"
     fill="#fef8ed"
     id="path12"
     style="display:inline" /><path
     d="m 244,262 c 36.45425,0.15158 70.62228,38.0812 54,89 -2.60128,-25.15472 -12.9374,-76.02821 -54,-89 z"
     fill="#0cc6dc"
     id="path13" /><path
     d="m 163.77903,193.46967 c 6.21628,18.104 13.91951,29.91456 24.59229,39.92678 -9.50323,1.1568 -16.75026,-14.48667 -32.24632,-21.27145 -13.33243,-1.81744 -17.70038,1.4247 -25.125,4.875 6.64343,-15.84054 25.16079,-23.53033 32.77903,-23.53033 z"
     fill="#115273"
     id="path20"
     style="display:inline" /><path
     d="m 194,309 v 7 c -7.74572,3.67178 -10.55301,5.49128 -16.14877,8.19017 6.96529,3.695 9.7374,5.01817 17.14877,8.80983 v 6 c -10.19159,-4.08181 -17.89711,-7.20961 -25,-11 -0.14115,-2.67059 -0.0425,-5.32432 0,-8 9.2468,-3.71119 13.74714,-5.8059 24,-11 z"
     fill="#313cb3"
     id="path22" /><path
     d="m 268.86827,212.91511 c 2.73528,6.23743 4.90325,8.61392 7.76435,9.84574 3.69605,1.07787 13.96466,5.25765 11.37437,14.1976 -8.11693,-3.47474 -15.23628,-3.59543 -19.79878,-4.77839 -10.1162,-4.89831 -12.87809,-13.71889 -22.0103,-20.22542 10.39761,0.95265 14.39765,1.86944 22.67036,0.96047 z"
     fill="#ae3930"
     id="path23" /><path
     d="m 215,300 h 6 c -4.62617,16.75922 -10.252,32.81223 -16,49 h -6 c 5.15612,-17.47797 10.252,-32.81223 16,-49 z"
     fill="#384ab7"
     id="path24"
     style="display:inline" /><path
     d="m 226,309 c 7.14611,3.81702 14.30976,7.03786 23,11 v 8 c -7.61819,3.7378 -13.88613,6.92882 -23,11 l 0.0625,-6.1875 c 8.52455,-4.54985 10.625,-5.6875 15.9375,-8.625 L 226,316 Z"
     fill="#1e7bb0"
     id="path25" /><path
     d="m 190.59338,236.05723 c -7.44731,2.23605 -32.6655,-24.06228 -59.45213,-19.30224 32.59217,-18.06737 49.53216,14.48238 59.45213,19.30224 z"
     fill="#1eafcf"
     id="path26"
     style="display:inline" /><path
     d="m 261.28125,176 c -11.80374,7.40424 -49.56253,1.25576 -30.28125,39 -7.24968,-6.47919 -28.70303,-39.00634 30.28125,-39 z"
     fill="#e69f55"
     id="path36" /><path
     d="m 167,241 c -36.96569,35.47526 -41.37448,74.02883 -5.0502,119.03866 27.73595,26.821 93.16015,28.3409 110.9323,-14.09769 -6.44542,31.01863 -33.52423,41.63381 -54.2085,44.54002 C 162.62096,397.41023 100.29213,334.84516 115.44975,270.42678 120.48154,258.47862 138.84055,240.8021 167,241 Z"
     fill="#063376"
     id="path41" /><path
     d="m 338.5,127 c 3.19585,7.2802 5.0174,7.6168 10.5,10 -6.43239,1.2573 -7.64472,1.43938 -10.625,8.5 -2.57957,-6.91456 -2.77386,-7.19609 -10.375,-10.5 7.34123,-1.4673 8.16061,-2.06375 10.5,-8 z"
     fill="#c98852"
     id="path43"
     style="display:inline" /><path
     d="m 215,300 6.00781,-0.004 c -3.0025,10.85161 -3.39686,11.83989 -7.29968,23.78467 -2.16201,2.15814 -6.18738,0.97987 -7.92714,3.26343 C 208.77043,317.99238 211.79531,308.93994 215,300 Z"
     fill="#319daa"
     id="path45" /><path
     d="m 270.47658,105.66719 11.19155,6.96338 C 283.48861,160.89981 287.36722,172.27715 319,182 269.52284,181.81528 275.41481,132.23287 270.47658,105.66719 Z"
     fill="#976927"
     id="path63" /><path
     d="m 372.94283,193.75736 c -12.32989,8.69133 -79.48706,21.99135 -126.78671,18.38496 34.15042,-13.51349 43.44248,-9.44458 48.76062,-35.98986 7.22498,4.84409 22.74425,21.90661 78.02609,17.6049 z"
     fill="#f3513b"
     id="path103"
     style="fill:#c92c16;fill-opacity:1" /><path
     d="m 316.4375,104.0625 c 2.64,0 5.28,0 8,0 0,2.64 0,5.28 0,8 -2.64,0 -5.28,0 -8,0 0,-2.64 0,-5.28 0,-8 z"
     fill="#fef7d3"
     id="path105"
     style="fill:#fee6ac;fill-opacity:1" /><path
     d="m 300,108 c 2.64,0 5.28,0 8,0 0,2.64 0,5.28 0,8 -2.64,0 -5.28,0 -8,0 0,-2.64 0,-5.28 0,-8 z"
     fill="#fee6ac"
     id="path106" /><path
     d="m 308.75,119.375 c 2.61937,0 5.23875,0 7.9375,0 0,2.68125 0,5.3625 0,8.125 -2.61938,0 -5.23875,0 -7.9375,0 0,-2.68125 0,-5.3625 0,-8.125 z"
     fill="#fef5d8"
     id="path124"
     style="fill:#fee6ac;fill-opacity:1;stroke-width:0.999996" /><path
     d="m 379.02649,160.42126 c 2.3601,-0.30426 4.72157,2.58557 4.2474,4.70423 -0.18967,1.58457 -0.78416,3.12242 -4.12132,3.18685 -2.3499,-0.0794 -3.87042,-1.48837 -3.98158,-4.00406 -0.15371,-1.29889 1.06189,-3.75256 3.8555,-3.88702 z"
     fill="#fde4c2"
     id="path142" /></svg>
